<svg width="50" height="48" viewBox="0 0 50 48" fill="none" xmlns="http://www.w3.org/2000/svg">
<g clip-path="url(#clip0)">
<path d="M21.2503 33.0556H14.1669C11.5589 33.0556 9.4447 35.1698 9.4447 37.7778V46.4352H40.9262V37.7778C40.9262 35.1698 38.812 33.0556 36.204 33.0556H21.2503Z" fill="#0FFB98"/>
<path d="M17.9344 24.3982C17.7504 24.1134 17.5832 23.818 17.4339 23.5135C17.3874 23.4207 17.3418 23.3278 17.2985 23.2334C17.245 23.1137 17.193 22.9972 17.1411 22.8713C17.0892 22.7454 17.0451 22.6163 17.001 22.4872C16.9664 22.3881 16.9286 22.2905 16.8979 22.189C16.8302 21.9647 16.7728 21.7364 16.7224 21.505C16.7043 21.4208 16.6909 21.3366 16.6752 21.2516C16.6416 21.0722 16.6138 20.8908 16.5918 20.7078C16.5823 20.629 16.5721 20.5456 16.565 20.4638C16.5406 20.204 16.5249 19.942 16.5249 19.6767V14.9537H22.8999C24.7056 14.9538 26.2797 13.725 26.7178 11.9732L28.3336 6.2963L30.0989 12.569C30.4491 13.9703 31.7082 14.9535 33.1526 14.9537H33.8428V19.6759C33.8428 19.942 33.8271 20.204 33.8027 20.463C33.7956 20.5417 33.7854 20.6259 33.7759 20.707C33.7539 20.89 33.7261 21.0714 33.6925 21.2508C33.6768 21.3358 33.6634 21.42 33.6453 21.5042C33.5949 21.7356 33.5375 21.9647 33.469 22.189C33.4391 22.2897 33.4013 22.3865 33.3675 22.4857C33.3226 22.6147 33.277 22.7438 33.2266 22.8705C33.1762 22.9972 33.1258 23.1129 33.0692 23.2326C33.0259 23.327 32.9802 23.4199 32.9338 23.5128C32.7855 23.8174 32.6194 24.1131 32.4364 24.3982H33.8428L33.879 24.3328L36.0395 20.4441C36.1795 20.1922 36.3107 19.9362 36.433 19.6759C36.5553 19.4157 36.6678 19.1589 36.7706 18.9054C37.4349 17.2627 37.7769 15.5074 37.778 13.7354C37.778 7.25728 33.0338 1.56227 26.5926 0.865745C19.6815 0.0885448 13.4489 5.06115 12.6717 11.9722C12.6192 12.4395 12.5928 12.9094 12.5928 13.3796L13.9363 19.6759C14.0601 19.9357 14.1913 20.1918 14.3298 20.4441L16.0904 23.6111H11.8058C10.5018 23.6111 9.44466 24.6682 9.44466 25.9722C9.44466 27.2763 10.5018 28.3334 11.8058 28.3334H11.0187C8.41079 28.3558 6.31491 30.4882 6.33734 33.096C6.35829 35.5256 8.21934 37.5428 10.6394 37.7589C10.6394 37.7589 11.8058 42.5 14.9539 42.5H16.528C19.1362 42.5 22.0373 40.3861 22.0373 37.7778C22.0373 35.1696 19.1362 33.0556 16.528 33.0556H21.2502V27.5463C20.3606 27.1948 19.5557 26.6583 18.8891 25.9722L17.9344 24.3982Z" fill="#F8003B"/>
<path d="M29.1206 33.0556V27.3811C30.7796 26.5413 32.1198 25.1835 32.9377 23.5135C32.9841 23.4207 33.0298 23.3278 33.0731 23.2334C33.1255 23.1137 33.178 22.993 33.2305 22.8713C33.2808 22.7446 33.3265 22.6163 33.3713 22.4865C33.4052 22.3873 33.4422 22.2897 33.4729 22.1897C33.5414 21.9654 33.5996 21.7364 33.6492 21.505C33.6673 21.4216 33.6807 21.3358 33.6964 21.2516C33.7295 21.0722 33.7578 20.8911 33.7798 20.7078C33.7893 20.6291 33.7995 20.5456 33.8066 20.4638C33.8302 20.2041 33.8467 19.942 33.8467 19.6767V14.9537H33.1565C31.7121 14.9535 30.453 13.9703 30.1028 12.569L28.3335 6.2963L26.7177 11.9732C26.2799 13.7239 24.7075 14.9524 22.903 14.9537H16.528V19.6759C16.5286 22.9277 18.353 25.9044 21.2502 27.3811V32.2686H18.102V33.0556C18.102 33.0556 20.4631 33.0556 21.2502 34.6297C21.6722 35.3541 21.9401 36.158 22.0372 36.9908H31.4817C33.655 36.9908 35.4169 35.2289 35.4169 33.0556H29.1206Z" fill="#F8003B"/>
<path d="M36.2039 32.2686H29.9076V27.8423C31.0609 27.1722 32.0604 26.2669 32.8409 25.1852H33.8428C34.1285 25.1852 34.3919 25.0304 34.5307 24.7807L36.5549 21.1367C37.8717 18.7632 38.5635 16.0939 38.565 13.3796C38.5607 5.98592 32.5634 -0.00432636 25.1696 2.34455e-06C23.3859 0.00108452 21.6204 0.358498 19.9768 1.05148C14.0228 3.57001 10.8991 10.5502 12.8659 16.9426L14.6753 22.8241H11.8057C10.0671 22.8241 8.65759 24.2336 8.65759 25.9723C8.65956 26.6429 8.87757 27.2951 9.27935 27.832C6.39466 28.7901 4.83298 31.9054 5.7911 34.79C6.45468 36.7877 8.19954 38.2319 10.286 38.5105C10.6547 41.2425 12.9842 43.2824 15.7409 43.2871H17.315C20.3577 43.2871 22.8243 40.8205 22.8243 37.7778C22.8243 34.7351 20.3577 32.2686 17.315 32.2686H14.9539V33.8426H17.315C19.4883 33.8426 21.2502 35.6045 21.2502 37.7778C21.2502 39.9511 19.4883 41.713 17.315 41.713H15.7409C13.8716 41.7106 12.2609 40.3958 11.8844 38.5649H15.7409V36.9908H11.0187C8.8454 36.9908 7.08352 35.2289 7.08352 33.0556C7.08352 30.8823 8.8454 29.1204 11.0187 29.1204H15.7409V27.5463H11.8057C10.9364 27.5463 10.2317 26.8416 10.2317 25.9723C10.2317 25.1029 10.9364 24.3982 11.8057 24.3982H15.7409C16.1756 24.3983 16.5281 24.046 16.5282 23.6113C16.5282 23.5328 16.5165 23.4548 16.4933 23.3797L16.4784 23.3333C17.2828 25.2285 18.6813 26.8109 20.4632 27.8423V33.0556H22.0372V28.5695C24.0717 29.304 26.299 29.304 28.3335 28.5695V33.0556C28.3335 33.4902 28.6859 33.8426 29.1206 33.8426H34.5181C34.1603 35.2283 32.9128 36.1983 31.4817 36.2037H24.3983V37.7778H31.4817C33.7835 37.7736 35.7475 36.1119 36.1331 33.8426H36.2039C38.3761 33.8452 40.1365 35.6056 40.1391 37.7778V45.6482H10.2317V43.2871H8.65759V46.4352C8.65759 46.8699 9.00999 47.2223 9.44463 47.2223H40.9261C41.3608 47.2223 41.7132 46.8699 41.7132 46.4352V37.7778C41.7097 34.7366 39.2452 32.272 36.2039 32.2686ZM14.3699 16.4798C12.6384 10.8493 15.3702 4.70964 20.5875 2.50121C26.5986 -0.0342339 33.527 2.78336 36.0623 8.79446C36.6745 10.2457 36.9902 11.8046 36.991 13.3796C36.9899 15.8263 36.367 18.2326 35.1808 20.3725L34.3764 21.8191C34.543 21.1168 34.6281 20.3977 34.6298 19.6759V15.7408H35.4169V14.1667H33.1526C32.0611 14.1653 31.1124 13.4174 30.856 12.3565L29.0907 6.0838C28.9954 5.7443 28.6861 5.50956 28.3335 5.50927C27.9818 5.50917 27.6728 5.74243 27.5764 6.08066L25.9543 11.782C25.6043 13.1824 24.3465 14.1654 22.903 14.1667H14.9539V15.7408H15.7409V19.6759C15.741 20.3032 15.8038 20.9288 15.9282 21.5436L14.3699 16.4798ZM17.315 19.6759V15.7408H22.903C25.062 15.7459 26.9479 14.2818 27.478 12.1889L28.3327 9.18631L29.3378 12.7595C29.7659 14.4749 31.2882 15.6923 33.0558 15.7329V19.6759C33.0558 24.0227 29.5321 27.5463 25.1854 27.5463C20.8387 27.5463 17.315 24.0227 17.315 19.6759Z" fill="#F8003B"/>
<path d="M21.2502 17.5116C20.4896 17.5116 19.8729 18.1282 19.8729 18.8889C19.8729 19.6496 20.4896 20.2662 21.2502 20.2662C22.0109 20.2662 22.6276 19.6496 22.6276 18.8889C22.6267 18.1286 22.0106 17.5125 21.2502 17.5116ZM21.0535 18.8889C21.0535 18.7802 21.1415 18.6921 21.2502 18.6921C21.3589 18.6921 21.447 18.7802 21.447 18.8889C21.447 19.1053 21.0535 19.1053 21.0535 18.8889Z" fill="#F8003B"/>
<path d="M29.1206 17.5116C28.3599 17.5116 27.7433 18.1282 27.7433 18.8889C27.7433 19.6496 28.3599 20.2662 29.1206 20.2662C29.8813 20.2662 30.4979 19.6496 30.4979 18.8889C30.497 18.1286 29.881 17.5125 29.1206 17.5116ZM28.9238 18.8889C28.9238 18.7802 29.0119 18.6921 29.1206 18.6921C29.2293 18.6921 29.3174 18.7802 29.3174 18.8889C29.3174 19.1053 28.9238 19.1053 28.9238 18.8889Z" fill="#F8003B"/>
<path d="M25.1854 24.5949C24.2078 24.594 23.4155 23.8017 23.4146 22.8241H22.234C22.234 24.4542 23.5553 25.7755 25.1854 25.7755C26.8155 25.7755 28.1368 24.4542 28.1368 22.8241H26.9562C26.9554 23.8017 26.1631 24.594 25.1854 24.5949Z" fill="#F8003B"/>
</g>
<g clip-path="url(#clip1)">
<path d="M24.028 33.75H16.9446C14.3366 33.75 12.2224 35.8642 12.2224 38.4723V47.1297H43.7039V38.4723C43.7039 35.8642 41.5897 33.75 38.9817 33.75H24.028Z" fill="#F8003B"/>
<path d="M20.7121 25.0926C20.5281 24.8078 20.3609 24.5125 20.2116 24.208C20.1652 24.1151 20.1195 24.0222 20.0762 23.9278C20.0227 23.8082 19.9708 23.6917 19.9188 23.5658C19.8669 23.4398 19.8228 23.3108 19.7787 23.1817C19.7441 23.0825 19.7063 22.9849 19.6756 22.8834C19.6079 22.6591 19.5505 22.4309 19.5001 22.1995C19.482 22.1153 19.4686 22.031 19.4529 21.946C19.4193 21.7666 19.3915 21.5853 19.3695 21.4022C19.36 21.3235 19.3498 21.2401 19.3427 21.1582C19.3183 20.8985 19.3026 20.6364 19.3026 20.3712V15.6482H25.6776C27.4833 15.6483 29.0574 14.4194 29.4955 12.6677L31.1113 6.99075L32.8766 13.2634C33.2268 14.6648 34.4859 15.648 35.9303 15.6482H36.6205V20.3704C36.6205 20.6364 36.6048 20.8985 36.5804 21.1574C36.5733 21.2361 36.5631 21.3203 36.5536 21.4014C36.5316 21.5845 36.5038 21.7658 36.4702 21.9453C36.4545 22.0303 36.4411 22.1145 36.423 22.1987C36.3726 22.4301 36.3152 22.6591 36.2467 22.8834C36.2168 22.9841 36.179 23.0809 36.1452 23.1801C36.1003 23.3092 36.0547 23.4383 36.0043 23.565C35.9539 23.6917 35.9036 23.8074 35.8469 23.927C35.8036 24.0215 35.7579 24.1143 35.7115 24.2072C35.5633 24.5119 35.3971 24.8075 35.2141 25.0926H36.6205L36.6567 25.0273L38.8172 21.1385C38.9573 20.8867 39.0884 20.6306 39.2107 20.3704C39.333 20.1102 39.4455 19.8533 39.5483 19.5999C40.2126 17.9571 40.5547 16.2018 40.5557 14.4298C40.5557 7.95172 35.8115 2.25672 29.3704 1.56019C22.4592 0.782988 16.2266 5.75559 15.4494 12.6667C15.3969 13.134 15.3705 13.6038 15.3705 14.0741L16.714 20.3704C16.8379 20.6301 16.969 20.8862 17.1075 21.1385L18.8681 24.3056H14.5835C13.2795 24.3056 12.2224 25.3627 12.2224 26.6667C12.2224 27.9707 13.2795 29.0278 14.5835 29.0278H13.7964C11.1885 29.0502 9.09262 31.1826 9.11505 33.7905C9.136 36.2201 10.9971 38.2372 13.4171 38.4534C13.4171 38.4534 14.5835 43.1945 17.7316 43.1945H19.3057C21.914 43.1945 24.815 41.0805 24.815 38.4723C24.815 35.864 21.914 33.75 19.3057 33.75H24.0279V28.2408C23.1383 27.8893 22.3334 27.3527 21.6668 26.6667L20.7121 25.0926Z" fill="#0FFB98"/>
<path d="M31.8983 33.75V28.0755C33.5573 27.2357 34.8975 25.878 35.7154 24.208C35.7618 24.1151 35.8075 24.0222 35.8508 23.9278C35.9032 23.8082 35.9557 23.6875 36.0082 23.5658C36.0586 23.4391 36.1042 23.3108 36.1491 23.1809C36.1829 23.0817 36.2199 22.9841 36.2506 22.8842C36.3191 22.6599 36.3773 22.4309 36.4269 22.1995C36.445 22.116 36.4584 22.0303 36.4741 21.946C36.5072 21.7666 36.5355 21.5856 36.5575 21.4022C36.567 21.3235 36.5772 21.2401 36.5843 21.1582C36.6079 20.8985 36.6244 20.6364 36.6244 20.3712V15.6482H35.9342C34.4898 15.648 33.2307 14.6648 32.8805 13.2634L31.1112 6.99075L29.4954 12.6677C29.0577 14.4183 27.4852 15.6469 25.6807 15.6482H19.3057V20.3704C19.3064 23.6221 21.1307 26.5988 24.0279 28.0755V32.963H20.8797V33.75C20.8797 33.75 23.2409 33.75 24.0279 35.3241C24.4499 36.0486 24.7178 36.8524 24.8149 37.6852H34.2594C36.4327 37.6852 38.1946 35.9233 38.1946 33.75H31.8983Z" fill="#0FFB98"/>
<path d="M38.9816 32.963H32.6853V28.5367C33.8386 27.8666 34.8381 26.9613 35.6186 25.8797H36.6205C36.9062 25.8797 37.1696 25.7248 37.3084 25.4751L39.3326 21.8311C40.6495 19.4576 41.3412 16.7884 41.3427 14.0741C41.3384 6.68036 35.3411 0.690116 27.9474 0.694445C26.1636 0.695527 24.3981 1.05294 22.7545 1.74593C16.8005 4.26445 13.6768 11.2447 15.6436 17.637L17.453 23.5185H14.5835C12.8448 23.5185 11.4353 24.928 11.4353 26.6667C11.4373 27.3373 11.6553 27.9895 12.0571 28.5265C9.17237 29.4846 7.61069 32.5999 8.56881 35.4845C9.23239 37.4822 10.9772 38.9264 13.0637 39.205C13.4324 41.9369 15.7619 43.9768 18.5186 43.9815H20.0927C23.1354 43.9815 25.602 41.5149 25.602 38.4723C25.602 35.4296 23.1354 32.963 20.0927 32.963H17.7316V34.5371H20.0927C22.266 34.5371 24.0279 36.299 24.0279 38.4723C24.0279 40.6456 22.266 42.4074 20.0927 42.4074H18.5186C16.6493 42.4051 15.0387 41.0902 14.6622 39.2593H18.5186V37.6852H13.7964C11.6231 37.6852 9.86123 35.9233 9.86123 33.75C9.86123 31.5767 11.6231 29.8148 13.7964 29.8148H18.5186V28.2408H14.5835C13.7141 28.2408 13.0094 27.5361 13.0094 26.6667C13.0094 25.7973 13.7141 25.0926 14.5835 25.0926H18.5186C18.9533 25.0927 19.3058 24.7404 19.3059 24.3058C19.3059 24.2273 19.2942 24.1493 19.2711 24.0742L19.2561 24.0278C20.0605 25.9229 21.459 27.5054 23.2409 28.5367V33.75H24.8149V29.2639C26.8494 29.9984 29.0768 29.9984 31.1112 29.2639V33.75C31.1112 34.1847 31.4636 34.5371 31.8983 34.5371H37.2958C36.938 35.9227 35.6905 36.8928 34.2594 36.8982H27.1761V38.4723H34.2594C36.5612 38.468 38.5252 36.8063 38.9108 34.5371H38.9816C41.1539 34.5396 42.9143 36.3 42.9168 38.4723V46.3426H13.0094V43.9815H11.4353V47.1297C11.4353 47.5643 11.7877 47.9167 12.2223 47.9167H43.7039C44.1385 47.9167 44.4909 47.5643 44.4909 47.1297V38.4723C44.4874 35.431 42.0229 32.9664 38.9816 32.963ZM17.1476 17.1742C15.4161 11.5438 18.1479 5.40408 23.3652 3.19565C29.3763 0.660209 36.3047 3.4778 38.8401 9.4889C39.4522 10.9401 39.7679 12.499 39.7687 14.0741C39.7676 16.5208 39.1447 18.9271 37.9585 21.0669L37.1541 22.5135C37.3207 21.8113 37.4058 21.0921 37.4076 20.3704V16.4352H38.1946V14.8611H35.9303C34.8389 14.8597 33.8901 14.1119 33.6337 13.0509L31.8684 6.77825C31.7731 6.43874 31.4638 6.204 31.1112 6.20371C30.7595 6.20361 30.4505 6.43687 30.3541 6.7751L28.732 12.4764C28.382 13.8768 27.1242 14.8598 25.6807 14.8611H17.7316V16.4352H18.5186V20.3704C18.5187 20.9977 18.5815 21.6233 18.706 22.238L17.1476 17.1742ZM20.0927 20.3704V16.4352H25.6807C27.8397 16.4403 29.7256 14.9762 30.2557 12.8833L31.1105 9.88075L32.1155 13.4539C32.5437 15.1693 34.0659 16.3867 35.8335 16.4273V20.3704C35.8335 24.7171 32.3098 28.2408 27.9631 28.2408C23.6164 28.2408 20.0927 24.7171 20.0927 20.3704Z" fill="#0FFB98"/>
<path d="M24.028 18.206C23.2673 18.206 22.6506 18.8227 22.6506 19.5833C22.6506 20.344 23.2673 20.9607 24.028 20.9607C24.7886 20.9607 25.4053 20.344 25.4053 19.5833C25.4044 18.8231 24.7883 18.2069 24.028 18.206ZM23.8312 19.5833C23.8312 19.4746 23.9192 19.3866 24.028 19.3866C24.1367 19.3866 24.2247 19.4746 24.2247 19.5833C24.2247 19.7998 23.8312 19.7998 23.8312 19.5833Z" fill="#0FFB98"/>
<path d="M31.8983 18.206C31.1376 18.206 30.521 18.8227 30.521 19.5833C30.521 20.344 31.1376 20.9607 31.8983 20.9607C32.659 20.9607 33.2756 20.344 33.2756 19.5833C33.2747 18.8231 32.6587 18.2069 31.8983 18.206ZM31.7016 19.5833C31.7016 19.4746 31.7896 19.3866 31.8983 19.3866C32.007 19.3866 32.0951 19.4746 32.0951 19.5833C32.0951 19.7998 31.7016 19.7998 31.7016 19.5833Z" fill="#0FFB98"/>
<path d="M27.9631 25.2894C26.9855 25.2885 26.1932 24.4961 26.1923 23.5185H25.0117C25.0117 25.1486 26.3331 26.4699 27.9631 26.4699C29.5932 26.4699 30.9145 25.1486 30.9145 23.5185H29.7339C29.7331 24.4961 28.9408 25.2885 27.9631 25.2894Z" fill="#0FFB98"/>
</g>
<defs>
<clipPath id="clip0">
<rect width="47.2223" height="47.2223" fill="white"/>
</clipPath>
<clipPath id="clip1">
<rect width="47.2223" height="47.2223" fill="white" transform="translate(2.77771 0.694443)"/>
</clipPath>
</defs>
</svg>
