<svg width="68" height="34" viewBox="0 0 68 34" fill="none" xmlns="http://www.w3.org/2000/svg">
<path d="M5.80289 16.0819L17.5804 4.15541C18.5193 3.20484 18.5193 1.66349 17.5807 0.712924C16.642 -0.237641 15.1199 -0.237641 14.181 0.712924L0.704006 14.3607C-0.234669 15.3112 -0.234669 16.8526 0.704006 17.8034L14.181 31.4511C14.6505 31.9265 15.2656 32.1641 15.8807 32.1641C16.4958 32.1641 17.1112 31.9265 17.5804 31.4511C18.5191 30.5006 18.5191 28.9592 17.5804 28.0084L5.80289 16.0819Z" fill="#F8003B"/>
<path d="M63.6903 14.3607L50.2133 0.712924C49.2746 -0.237641 47.7525 -0.237641 46.8136 0.712924C45.875 1.66349 45.875 3.20484 46.8136 4.15565L58.5912 16.0821L46.8136 28.0086C45.8752 28.9592 45.8752 30.5006 46.8139 31.4511C47.2833 31.9265 47.8984 32.1641 48.5136 32.1641C49.1287 32.1641 49.7441 31.9265 50.2133 31.4511L63.6903 17.8034C64.629 16.8526 64.629 15.3115 63.6903 14.3607Z" fill="#F8003B"/>
<path d="M36.4176 1.04227C35.1354 0.693694 33.8172 1.4651 33.4735 2.76352L26.277 29.9614C25.9335 31.26 26.6946 32.5947 27.9768 32.9428C28.1852 32.9993 28.3945 33.0263 28.6005 33.0263C29.6618 33.0263 30.6332 32.3089 30.9209 31.2216L38.1173 4.02372C38.4611 2.72481 37.7 1.39037 36.4176 1.04227Z" fill="#F8003B"/>
<path d="M9.40848 17.0556L21.186 5.12909C22.1249 4.17853 22.1249 2.63718 21.1863 1.68661C20.2476 0.736047 18.7255 0.736047 17.7866 1.68661L4.3096 15.3343C3.37092 16.2849 3.37092 17.8263 4.3096 18.7771L17.7866 32.4248C18.2561 32.9002 18.8712 33.1378 19.4863 33.1378C20.1014 33.1378 20.7168 32.9002 21.186 32.4248C22.1247 31.4742 22.1247 29.9329 21.186 28.9821L9.40848 17.0556Z" fill="#0FFB98"/>
<path d="M67.2959 15.3343L53.8189 1.68661C52.8802 0.736047 51.3581 0.736047 50.4192 1.68661C49.4805 2.63718 49.4805 4.17853 50.4192 5.12934L62.1968 17.0558L50.4192 28.9823C49.4808 29.9329 49.4808 31.4742 50.4195 32.4248C50.8889 32.9002 51.504 33.1378 52.1192 33.1378C52.7343 33.1378 53.3497 32.9002 53.8189 32.4248L67.2959 18.7771C68.2346 17.8263 68.2346 16.2852 67.2959 15.3343Z" fill="#0FFB98"/>
<path d="M40.0232 2.01596C38.741 1.66738 37.4228 2.43879 37.0791 3.73721L29.8826 30.9351C29.5391 32.2337 30.3002 33.5684 31.5823 33.9165C31.7907 33.973 32.0001 34 32.2061 34C33.2674 34 34.2388 33.2826 34.5265 32.1953L41.7229 4.9974C42.0666 3.6985 41.3056 2.36406 40.0232 2.01596Z" fill="#0FFB98"/>
</svg>
