<svg width="50" height="45" viewBox="0 0 50 45" fill="none" xmlns="http://www.w3.org/2000/svg">
<path d="M47.626 14.351C47.3857 13.9999 47.0142 13.592 46.6479 13.3695L41.2195 10.0846L41.5362 9.77107C43.7131 7.61071 43.7109 4.09785 41.5313 1.94027C39.5105 -0.0602115 36.3127 -0.207917 34.1181 1.49901C32.0726 -0.0920952 29.1553 -0.0710872 27.1321 1.55962L25.0012 0.27015C24.4074 -0.0899571 23.6694 -0.0900501 23.076 0.269871L1.42803 13.3701C1.06191 13.5924 0.689788 14.0004 0.449593 14.351C0.205171 14.7872 0 15.3914 0 15.8925V29.6499C0 30.0349 0.315222 30.347 0.704249 30.347C1.09328 30.347 1.4085 30.0349 1.4085 29.6499V15.8925C1.4085 15.8846 1.40859 15.8767 1.40869 15.8688L23.0769 28.9822C23.6699 29.3399 24.4068 29.3398 25.0007 28.9816L33.4128 23.8905C33.7446 23.6896 33.8491 23.2605 33.6462 22.932C33.4433 22.6033 33.0097 22.5001 32.678 22.7008L24.2669 27.7914C24.1259 27.8765 23.9508 27.8766 23.8107 27.792L9.74136 19.2774C9.9162 17.4192 10.7436 15.6721 12.0798 14.3493C15.2378 11.2232 20.3794 11.2201 23.541 14.3424C23.8159 14.6139 24.2608 14.6139 24.5358 14.3424C25.7703 13.1234 27.3269 12.3469 29.0428 12.0904L29.563 12.6054C29.838 12.8776 30.2839 12.8777 30.5589 12.6054C30.834 12.3331 30.834 11.8917 30.559 11.6195L27.6972 8.78649C26.0681 7.16982 26.0698 4.54096 27.7009 2.92634C29.3319 1.31171 31.9876 1.31004 33.6208 2.9228C33.8957 3.19423 34.3406 3.19423 34.6155 2.9228C36.2485 1.31013 38.9042 1.31162 40.5354 2.92643C42.1665 4.54106 42.1682 7.16991 40.5397 8.78603L34.2842 14.9789C34.2243 15.0381 34.1545 15.0469 34.1181 15.0469C34.0818 15.0469 34.0119 15.0381 33.9521 14.9789L32.9443 13.9812C32.6692 13.7089 32.2233 13.7089 31.9483 13.9812C31.6733 14.2535 31.6733 14.6949 31.9483 14.9671L32.9561 15.9648C33.2666 16.2721 33.6792 16.4412 34.1181 16.4412C34.5571 16.4412 34.9697 16.2721 35.2802 15.9648L36.435 14.8215C37.5155 16.0766 38.1799 17.6306 38.335 19.2776L35.5551 20.9601C35.2232 21.1609 35.1187 21.59 35.3217 21.9185C35.5245 22.2471 35.9581 22.3504 36.2899 22.1497L46.6682 15.8685C46.6683 15.8766 46.6684 15.8848 46.6684 15.8929V41.0348C46.6684 41.1629 46.5632 41.2672 46.4337 41.2672H1.64344C1.51395 41.2672 1.40869 41.1629 1.40869 41.0348V32.9898C1.40869 32.6048 1.09346 32.2927 0.704437 32.2927C0.31541 32.2927 0.0001878 32.6048 0.0001878 32.9898V41.0348C0.0001878 41.9317 0.737396 42.6615 1.64344 42.6615H46.4337C47.3397 42.6615 48.0769 41.9317 48.0769 41.0348V15.8925C48.0767 15.3929 47.8713 14.7886 47.626 14.351V14.351ZM26.7006 9.77172L27.8506 10.9102C26.4411 11.2726 25.1458 11.946 24.0381 12.8973C20.3036 9.69829 14.6289 9.85408 11.0838 13.3634C9.67638 14.7567 8.74968 16.5512 8.42564 18.4812L2.06073 14.6293C2.09434 14.6052 2.12777 14.5809 2.16345 14.5593L23.8111 1.45914C23.9514 1.37408 24.1256 1.37427 24.2661 1.45942L26.1402 2.59356C24.5451 4.75699 24.7312 7.81725 26.7006 9.77172V9.77172ZM37.433 13.8332L40.195 11.0988L45.9123 14.5586C45.9481 14.5804 45.9817 14.6046 46.0153 14.6288L39.6503 18.481C39.3621 16.7601 38.5955 15.1518 37.433 13.8332Z" fill="#F8003B"/>
<path d="M7.57506 38.1974C8.09498 38.1974 8.58937 38.0881 9.03717 37.8928C9.06703 37.8966 9.09718 37.8992 9.12807 37.8992C9.40395 37.8992 9.5125 37.9468 9.6925 38.0256C9.92913 38.1292 10.2532 38.2711 10.8265 38.2711C11.3999 38.2711 11.7241 38.1292 11.9607 38.0256C12.1407 37.9467 12.2492 37.8992 12.5252 37.8992C12.8012 37.8992 12.9098 37.9468 13.0898 38.0256C13.3265 38.1291 13.6506 38.2711 14.224 38.2711C14.7975 38.2711 15.1216 38.1292 15.3582 38.0256C15.5382 37.9467 15.6469 37.8992 15.9229 37.8992C16.3119 37.8992 16.6271 37.5871 16.6271 37.2021C16.6271 36.8171 16.3119 36.5049 15.9229 36.5049C15.3494 36.5049 15.0253 36.6468 14.7886 36.7504C14.6086 36.8292 14.5 36.8767 14.224 36.8767C13.948 36.8767 13.8394 36.8291 13.6594 36.7504C13.4227 36.6469 13.0986 36.5049 12.5252 36.5049C11.9518 36.5049 11.6276 36.6468 11.3911 36.7504C11.2111 36.8292 11.1025 36.8767 10.8265 36.8767C10.6463 36.8767 10.5376 36.8562 10.4337 36.8201C10.7884 36.3744 11.0392 35.8444 11.1498 35.2656C11.3798 35.3639 11.6933 35.4782 12.2082 35.4782C12.7815 35.4782 13.1058 35.3364 13.3423 35.2327C13.5223 35.1539 13.6309 35.1064 13.9068 35.1064C14.1828 35.1064 14.2914 35.154 14.4714 35.2327C14.7082 35.3363 15.0322 35.4782 15.6057 35.4782C16.1791 35.4782 16.5033 35.3364 16.7399 35.2327C16.9199 35.1539 17.0284 35.1064 17.3044 35.1064C17.6934 35.1064 18.0087 34.7943 18.0087 34.4092C18.0087 34.0242 17.6934 33.7121 17.3044 33.7121C16.7311 33.7121 16.4069 33.8539 16.1703 33.9576C15.9903 34.0364 15.8816 34.0839 15.6057 34.0839C15.3297 34.0839 15.221 34.0363 15.041 33.9576C14.8043 33.854 14.4803 33.7121 13.9068 33.7121C13.3335 33.7121 13.0092 33.8539 12.7727 33.9576C12.5927 34.0364 12.4841 34.0839 12.2082 34.0839C11.9323 34.0839 11.8237 34.0363 11.6437 33.9576C11.5053 33.897 11.3405 33.8252 11.1176 33.7749C10.7415 32.1827 9.29643 30.9929 7.57506 30.9929C5.56861 30.9929 3.93616 32.6088 3.93616 34.5952C3.93616 36.5815 5.56861 38.1974 7.57506 38.1974V38.1974ZM6.57709 36.5689L9.56884 33.6072C9.71983 33.9047 9.80537 34.2401 9.80537 34.5951C9.80537 35.8126 8.80487 36.803 7.57497 36.803C7.21646 36.8031 6.87767 36.7183 6.57709 36.5689V36.5689ZM7.57506 32.3871C7.93366 32.3871 8.27245 32.4718 8.57293 32.6213L5.58119 35.5828C5.4302 35.2853 5.34466 34.95 5.34466 34.595C5.34466 33.3776 6.34516 32.3871 7.57506 32.3871Z" fill="#F8003B"/>
<path d="M40.429 34.2779C40.04 34.2779 39.7247 34.5901 39.7247 34.9751C39.7247 35.3601 40.04 35.6722 40.429 35.6722H42.4382C42.8273 35.6722 43.1425 35.3601 43.1425 34.9751C43.1425 34.5901 42.8273 34.2779 42.4382 34.2779H40.429Z" fill="#F8003B"/>
<path d="M35.734 38.0278H42.4383C42.8273 38.0278 43.1425 37.7157 43.1425 37.3306C43.1425 36.9456 42.8273 36.6335 42.4383 36.6335H35.734C35.345 36.6335 35.0298 36.9456 35.0298 37.3306C35.0298 37.7157 35.345 38.0278 35.734 38.0278Z" fill="#F8003B"/>
<path d="M44.6136 26.8431C44.6136 25.1802 43.247 23.8274 41.5673 23.8274C39.9608 23.8274 38.6418 25.0649 38.5296 26.6274H36.2035C35.5563 26.6274 35.0298 27.1486 35.0298 27.7894V30.7754C35.0298 31.4161 35.5563 31.9373 36.2035 31.9373H41.0978C41.745 31.9373 42.2715 31.4161 42.2715 30.7754V29.7766C43.6127 29.461 44.6136 28.2659 44.6136 26.8431ZM36.4383 30.543V28.0218H38.7634C39.1384 28.8926 39.9159 29.5536 40.863 29.7766V30.543H36.4383ZM41.5673 28.4645C40.6642 28.4645 39.9295 27.7371 39.9295 26.8432C39.9295 25.9492 40.6642 25.2219 41.5673 25.2219C42.4704 25.2219 43.2051 25.9491 43.2051 26.8432C43.2051 27.7372 42.4704 28.4645 41.5673 28.4645Z" fill="#F8003B"/>
<path d="M5.34466 24.5247V22.2801C5.34466 21.8951 5.02943 21.5829 4.64041 21.5829C4.25138 21.5829 3.93616 21.8951 3.93616 22.2801V24.5247C3.93616 24.9097 4.25138 25.2219 4.64041 25.2219C5.02943 25.2219 5.34466 24.9097 5.34466 24.5247Z" fill="#F8003B"/>
<path d="M49.5491 16.2547C49.3088 15.9036 48.9373 15.4957 48.571 15.2733L43.1426 11.9883L43.4593 11.6748C45.6362 9.51442 45.634 6.00157 43.4544 3.84399C41.4336 1.84351 38.2358 1.6958 36.0412 3.40273C33.9957 1.81162 31.0784 1.83263 29.0552 3.46334L26.9243 2.17387C26.3305 1.81376 25.5925 1.81367 24.9991 2.17359L3.35112 15.2738C2.98501 15.4962 2.61288 15.9041 2.37269 16.2547C2.12827 16.6909 1.9231 17.2951 1.9231 17.7962V31.5536C1.9231 31.9386 2.23832 32.2507 2.62734 32.2507C3.01637 32.2507 3.33159 31.9386 3.33159 31.5536V17.7962C3.33159 17.7883 3.33169 17.7804 3.33178 17.7725L25 30.8859C25.593 31.2436 26.3299 31.2435 26.9238 30.8853L35.3359 25.7942C35.6677 25.5933 35.7722 25.1642 35.5693 24.8357C35.3664 24.507 34.9327 24.4039 34.6011 24.6045L26.19 29.6951C26.049 29.7802 25.8739 29.7803 25.7338 29.6957L11.6645 21.1811C11.8393 19.3229 12.6666 17.5758 14.0029 16.253C17.1609 13.1269 22.3025 13.1239 25.4641 16.2461C25.739 16.5176 26.1839 16.5176 26.4588 16.2461C27.6934 15.0271 29.25 14.2507 30.9659 13.9941L31.4861 14.5091C31.7611 14.7813 32.207 14.7814 32.482 14.5091C32.7571 14.2368 32.7571 13.7955 32.4821 13.5232L29.6203 10.6902C27.9912 9.07354 27.9929 6.44468 29.624 4.83005C31.255 3.21543 33.9107 3.21375 35.5439 4.82652C35.8188 5.09795 36.2637 5.09795 36.5386 4.82652C38.1716 3.21385 40.8273 3.21533 42.4584 4.83015C44.0896 6.44477 44.0913 9.07363 42.4628 10.6897L36.2073 16.8826C36.1474 16.9418 36.0776 16.9506 36.0412 16.9506C36.0049 16.9506 35.935 16.9418 35.8752 16.8826L34.8674 15.8849C34.5923 15.6126 34.1464 15.6126 33.8714 15.8849C33.5964 16.1572 33.5964 16.5986 33.8714 16.8708L34.8792 17.8685C35.1897 18.1758 35.6023 18.345 36.0412 18.345C36.4802 18.345 36.8928 18.1758 37.2032 17.8685L38.3581 16.7252C39.4386 17.9803 40.103 19.5343 40.2581 21.1813L37.4782 22.8638C37.1463 23.0647 37.0418 23.4937 37.2448 23.8222C37.4476 24.1508 37.8812 24.2541 38.213 24.0534L48.5913 17.7723C48.5914 17.7803 48.5915 17.7885 48.5915 17.7966V42.9385C48.5915 43.0666 48.4863 43.1709 48.3568 43.1709H3.56653C3.43704 43.1709 3.33178 43.0666 3.33178 42.9385V34.8935C3.33178 34.5085 3.01656 34.1964 2.62753 34.1964C2.23851 34.1964 1.92328 34.5085 1.92328 34.8935V42.9385C1.92328 43.8354 2.66049 44.5652 3.56653 44.5652H48.3568C49.2628 44.5652 50 43.8354 50 42.9385V17.7962C49.9998 17.2966 49.7944 16.6923 49.5491 16.2547V16.2547ZM28.6237 11.6754L29.7737 12.814C28.3642 13.1763 27.0689 13.8497 25.9612 14.801C22.2267 11.602 16.552 11.7578 13.0069 15.2671C11.5995 16.6604 10.6728 18.4549 10.3487 20.3849L3.98382 16.533C4.01744 16.5089 4.05087 16.4846 4.08655 16.463L25.7342 3.36285C25.8745 3.2778 26.0487 3.27799 26.1892 3.36313L28.0633 4.49728C26.4682 6.66071 26.6543 9.72097 28.6237 11.6754V11.6754ZM39.3561 15.7369L42.1181 13.0026L47.8354 16.4623C47.8712 16.4841 47.9048 16.5084 47.9384 16.5325L41.5734 20.3848C41.2852 18.6638 40.5186 17.0555 39.3561 15.7369Z" fill="#0FFB98"/>
<path d="M9.49815 40.1012C10.0181 40.1012 10.5125 39.9918 10.9603 39.7965C10.9901 39.8004 11.0203 39.803 11.0512 39.803C11.327 39.803 11.4356 39.8506 11.6156 39.9293C11.8522 40.0329 12.1763 40.1748 12.7496 40.1748C13.323 40.1748 13.6472 40.0329 13.8837 39.9293C14.0638 39.8505 14.1723 39.803 14.4483 39.803C14.7242 39.803 14.8329 39.8506 15.0129 39.9293C15.2496 40.0328 15.5737 40.1748 16.1471 40.1748C16.7206 40.1748 17.0447 40.0329 17.2813 39.9293C17.4613 39.8505 17.57 39.803 17.8459 39.803C18.235 39.803 18.5502 39.4908 18.5502 39.1058C18.5502 38.7208 18.235 38.4086 17.8459 38.4086C17.2725 38.4086 16.9484 38.5505 16.7117 38.6541C16.5317 38.733 16.4231 38.7805 16.1471 38.7805C15.8711 38.7805 15.7625 38.7329 15.5825 38.6541C15.3458 38.5506 15.0217 38.4086 14.4483 38.4086C13.8749 38.4086 13.5507 38.5505 13.3142 38.6541C13.1341 38.733 13.0256 38.7805 12.7496 38.7805C12.5694 38.7805 12.4607 38.7599 12.3567 38.7238C12.7115 38.2781 12.9623 37.7481 13.0729 37.1693C13.3029 37.2676 13.6164 37.3819 14.1313 37.3819C14.7046 37.3819 15.0289 37.2401 15.2654 37.1365C15.4454 37.0576 15.5539 37.0101 15.8299 37.0101C16.1059 37.0101 16.2145 37.0577 16.3945 37.1365C16.6313 37.24 16.9553 37.3819 17.5288 37.3819C18.1022 37.3819 18.4263 37.2401 18.663 37.1365C18.843 37.0576 18.9515 37.0101 19.2275 37.0101C19.6165 37.0101 19.9317 36.698 19.9317 36.313C19.9317 35.9279 19.6165 35.6158 19.2275 35.6158C18.6541 35.6158 18.33 35.7577 18.0934 35.8613C17.9134 35.9401 17.8047 35.9876 17.5288 35.9876C17.2528 35.9876 17.1441 35.94 16.9641 35.8613C16.7274 35.7577 16.4034 35.6158 15.8299 35.6158C15.2566 35.6158 14.9323 35.7577 14.6958 35.8613C14.5158 35.9401 14.4072 35.9876 14.1313 35.9876C13.8554 35.9876 13.7468 35.94 13.5668 35.8613C13.4284 35.8007 13.2636 35.7289 13.0407 35.6786C12.6646 34.0864 11.2195 32.8966 9.49815 32.8966C7.4917 32.8966 5.85925 34.5125 5.85925 36.4989C5.85925 38.4852 7.4917 40.1012 9.49815 40.1012V40.1012ZM8.50019 38.4726L11.4919 35.511C11.6429 35.8084 11.7285 36.1438 11.7285 36.4988C11.7285 37.7163 10.728 38.7067 9.49806 38.7067C9.13955 38.7068 8.80076 38.6221 8.50019 38.4726V38.4726ZM9.49815 34.2908C9.85676 34.2908 10.1955 34.3755 10.496 34.525L7.50428 37.4865C7.35329 37.1891 7.26775 36.8537 7.26775 36.4987C7.26775 35.2814 8.26825 34.2908 9.49815 34.2908Z" fill="#0FFB98"/>
<path d="M42.3521 36.1816C41.963 36.1816 41.6478 36.4938 41.6478 36.8788C41.6478 37.2638 41.963 37.576 42.3521 37.576H44.3613C44.7504 37.576 45.0656 37.2638 45.0656 36.8788C45.0656 36.4938 44.7504 36.1816 44.3613 36.1816H42.3521Z" fill="#0FFB98"/>
<path d="M37.6571 39.9315H44.3614C44.7504 39.9315 45.0656 39.6194 45.0656 39.2344C45.0656 38.8493 44.7504 38.5372 44.3614 38.5372H37.6571C37.2681 38.5372 36.9529 38.8493 36.9529 39.2344C36.9529 39.6194 37.2681 39.9315 37.6571 39.9315Z" fill="#0FFB98"/>
<path d="M46.5367 28.7468C46.5367 27.0839 45.1701 25.7312 43.4904 25.7312C41.8839 25.7312 40.5649 26.9687 40.4527 28.5311H38.1266C37.4794 28.5311 36.9529 29.0523 36.9529 29.6931V32.6791C36.9529 33.3198 37.4794 33.841 38.1266 33.841H43.0209C43.6681 33.841 44.1946 33.3198 44.1946 32.6791V31.6803C45.5358 31.3647 46.5367 30.1697 46.5367 28.7468ZM38.3614 32.4467V29.9255H40.6865C41.0615 30.7963 41.839 31.4574 42.7861 31.6803V32.4467H38.3614ZM43.4904 30.3682C42.5872 30.3682 41.8526 29.6408 41.8526 28.7469C41.8526 27.8529 42.5872 27.1256 43.4904 27.1256C44.3935 27.1256 45.1282 27.8529 45.1282 28.7469C45.1282 29.6409 44.3935 30.3682 43.4904 30.3682Z" fill="#0FFB98"/>
<path d="M7.26775 26.4284V24.1838C7.26775 23.7988 6.95253 23.4867 6.5635 23.4867C6.17447 23.4867 5.85925 23.7988 5.85925 24.1838V26.4284C5.85925 26.8134 6.17447 27.1256 6.5635 27.1256C6.95253 27.1256 7.26775 26.8134 7.26775 26.4284Z" fill="#0FFB98"/>
</svg>
