<svg width="55" height="40" viewBox="0 0 55 40" fill="none" xmlns="http://www.w3.org/2000/svg">
<path d="M46.1573 6.73239C41.7826 2.39094 35.9662 0 29.7794 0C24.445 0 19.238 1.84349 15.1176 5.1908C11.1891 8.38224 8.40648 12.7965 7.24177 17.6659C3.05952 18.898 0 22.7466 0 27.2916V37.1468C0 37.7134 0.462925 38.1729 1.03401 38.1729H29.2624C29.8334 38.1729 30.2964 37.7134 30.2964 37.1468C30.2964 36.5801 29.8334 36.1206 29.2624 36.1206H27.5046V29.1428H40.3481V36.1206H38.5685C37.9975 36.1206 37.5345 36.5801 37.5345 37.1468C37.5345 37.7134 37.9975 38.1729 38.5685 38.1729H51.9072C52.4781 38.1729 52.9412 37.7134 52.9412 37.1468V22.9859C52.9412 16.8461 50.5319 11.0738 46.1573 6.73239V6.73239ZM36.58 27.0905V20.1126H46.1843V27.0905H36.58ZM24.4522 20.1126H34.512V27.0905H27.5021C27.4476 24.3597 26.2891 21.8931 24.4522 20.1126V20.1126ZM19.0714 11.0825H28.6757V18.0603H21.3631C20.6386 17.752 19.8707 17.5255 19.0714 17.3921V11.0825ZM40.3481 11.0825V18.0603H30.7437V11.0825H40.3481ZM47.1208 11.0825C48.5777 13.1663 49.6631 15.5237 50.2819 18.0603H42.4162V11.0825H47.1208ZM48.2523 20.1126H50.6736C50.8042 21.0523 50.8732 22.0111 50.8732 22.9859V27.0905H48.2523V20.1126ZM45.4872 9.03016H36.5799V3.16887C40.0399 4.34135 43.097 6.38329 45.4872 9.03016ZM34.512 2.58375V9.03016H24.9077V2.62511C26.4799 2.25066 28.1122 2.05231 29.7794 2.05231C31.406 2.05231 32.9901 2.2363 34.512 2.58375ZM22.8397 3.23126V9.03016H14.0829C16.4542 6.41767 19.4682 4.40846 22.8397 3.23126ZM12.441 11.0825H17.0034V17.2524H10.116C9.90269 17.2524 9.69113 17.2598 9.48102 17.2727C10.1232 15.0246 11.1356 12.9415 12.441 11.0825V11.0825ZM15.2294 25.0487L17.3654 23.8248C17.877 24.874 18.164 26.0502 18.164 27.2917V28.9442H15.7169V27.3089C15.7169 26.5039 15.5416 25.7394 15.2294 25.0487ZM14.0437 23.3582C13.2697 22.6036 12.2758 22.0712 11.1673 21.8643V19.375C13.1842 19.6375 14.9677 20.6429 16.2295 22.1058L14.0437 23.3582ZM9.09926 19.3707V21.8643C7.9846 22.0724 6.98575 22.6093 6.20994 23.3706L4.00264 22.1059C5.27158 20.6347 7.06816 19.6261 9.09926 19.3707V19.3707ZM2.06801 27.2916C2.06801 26.0501 2.35516 24.8739 2.86658 23.8247L5.02993 25.0643C4.7221 25.7509 4.54963 26.51 4.54963 27.3087V28.944H2.06801V27.2916ZM2.06801 30.9964H4.54963V36.1206H2.06801V30.9964ZM6.61765 36.1206V27.3087C6.61765 25.3849 8.19471 23.8198 10.1333 23.8198C12.0718 23.8198 13.6489 25.3849 13.6489 27.3087V36.1206H6.61765ZM15.7169 36.1206V30.9964H18.1641V36.1206H15.7169ZM20.2321 36.1206V27.2916C20.2321 24.0374 18.6634 21.1403 16.2374 19.3047H17.3886C21.8262 19.3047 25.4366 22.8876 25.4366 27.2916V36.1206H20.2321ZM42.4161 36.1206V29.1428H50.8732V36.1206H42.4161Z" fill="#F8003B"/>
<path d="M33.9155 36.1206C33.6435 36.1206 33.3768 36.2303 33.1844 36.4213C32.9921 36.6121 32.8815 36.8769 32.8815 37.1468C32.8815 37.4167 32.992 37.6814 33.1844 37.8722C33.3768 38.063 33.6435 38.1729 33.9155 38.1729C34.1874 38.1729 34.4542 38.0631 34.6464 37.8722C34.8389 37.6814 34.9495 37.4167 34.9495 37.1468C34.9495 36.8769 34.8389 36.6121 34.6464 36.4213C34.4542 36.2303 34.1874 36.1206 33.9155 36.1206Z" fill="#F8003B"/>
<path d="M48.2161 8.19181C43.8414 3.85036 38.025 1.45942 31.8383 1.45942C26.5038 1.45942 21.2969 3.30291 17.1764 6.65022C13.2479 9.84166 10.4653 14.2559 9.30061 19.1253C5.11836 20.3574 2.05884 24.206 2.05884 28.751V38.6062C2.05884 39.1728 2.52176 39.6324 3.09285 39.6324H31.3212C31.8922 39.6324 32.3553 39.1728 32.3553 38.6062C32.3553 38.0396 31.8922 37.58 31.3212 37.58H29.5634V30.6022H42.4069V37.58H40.6273C40.0563 37.58 39.5933 38.0396 39.5933 38.6062C39.5933 39.1728 40.0563 39.6324 40.6273 39.6324H53.966C54.537 39.6324 55 39.1728 55 38.6062V24.4453C55 18.3055 52.5908 12.5333 48.2161 8.19181V8.19181ZM38.6388 28.5499V21.572H48.2432V28.5499H38.6388ZM26.511 21.572H36.5708V28.5499H29.561C29.5065 25.8191 28.348 23.3525 26.511 21.572V21.572ZM21.1303 12.5419H30.7345V19.5197H23.4219C22.6974 19.2114 21.9296 18.9849 21.1303 18.8515V12.5419ZM42.4069 12.5419V19.5197H32.8026V12.5419H42.4069ZM49.1797 12.5419C50.6365 14.6257 51.7219 16.9831 52.3408 19.5197H44.4751V12.5419H49.1797ZM50.3111 21.572H52.7324C52.863 22.5117 52.932 23.4705 52.932 24.4453V28.5499H50.3111V21.572ZM47.5461 10.4896H38.6387V4.62829C42.0987 5.80077 45.1559 7.84271 47.5461 10.4896ZM36.5708 4.04317V10.4896H26.9665V4.08453C28.5387 3.71008 30.171 3.51173 31.8383 3.51173C33.4648 3.51173 35.0489 3.69572 36.5708 4.04317ZM24.8985 4.69068V10.4896H16.1417C18.513 7.87709 21.527 5.86788 24.8985 4.69068ZM14.4998 12.5419H19.0623V18.7118H12.1748C11.9615 18.7118 11.75 18.7192 11.5399 18.7322C12.1821 16.4841 13.1945 14.401 14.4998 12.5419V12.5419ZM17.2882 26.5081L19.4243 25.2843C19.9358 26.3334 20.2228 27.5096 20.2228 28.7511V30.4036H17.7757V28.7684C17.7757 27.9633 17.6005 27.1989 17.2882 26.5081ZM16.1025 24.8177C15.3286 24.063 14.3347 23.5307 13.2261 23.3237V20.8344C15.2431 21.0969 17.0265 22.1024 18.2883 23.5652L16.1025 24.8177ZM11.1581 20.8301V23.3237C10.0434 23.5318 9.04459 24.0687 8.26878 24.83L6.06148 23.5653C7.33041 22.0941 9.127 21.0855 11.1581 20.8301V20.8301ZM4.12685 28.751C4.12685 27.5095 4.414 26.3333 4.92542 25.2842L7.08877 26.5237C6.78094 27.2103 6.60847 27.9694 6.60847 28.7682V30.4034H4.12685V28.751ZM4.12685 32.4558H6.60847V37.58H4.12685V32.4558ZM8.67649 37.58V28.7682C8.67649 26.8443 10.2536 25.2792 12.1921 25.2792C14.1307 25.2792 15.7077 26.8443 15.7077 28.7682V37.58H8.67649ZM17.7757 37.58V32.4558H20.2229V37.58H17.7757ZM22.291 37.58V28.751C22.291 25.4968 20.7223 22.5997 18.2963 20.7641H19.4474C23.8851 20.7641 27.4954 24.3471 27.4954 28.751V37.58H22.291ZM44.475 37.58V30.6022H52.932V37.58H44.475Z" fill="#0FFB98"/>
<path d="M35.9743 37.58C35.7024 37.58 35.4356 37.6897 35.2433 37.8807C35.0509 38.0716 34.9403 38.3363 34.9403 38.6062C34.9403 38.8761 35.0508 39.1408 35.2433 39.3316C35.4356 39.5225 35.7024 39.6324 35.9743 39.6324C36.2463 39.6324 36.513 39.5226 36.7053 39.3316C36.8977 39.1408 37.0083 38.8761 37.0083 38.6062C37.0083 38.3363 36.8977 38.0716 36.7053 37.8807C36.513 37.6897 36.2463 37.58 35.9743 37.58Z" fill="#0FFB98"/>
</svg>
