<svg width="1440" height="1019" viewBox="0 0 1440 1019" fill="none" xmlns="http://www.w3.org/2000/svg">
<rect x="102.503" y="47.2198" width="7" height="18.9539" rx="3.5" transform="rotate(38.0922 102.503 47.2198)" fill="#F2F2F2" fill-opacity="0.05"/>
<rect x="23.6934" y="86" width="7" height="18.9539" rx="3.5" transform="rotate(38.0922 23.6934 86)" fill="#F2F2F2" fill-opacity="0.05"/>
<rect x="59.6931" y="18" width="7" height="18.9539" rx="3.5" transform="rotate(38.0922 59.6931 18)" fill="#F2F2F2" fill-opacity="0.05"/>
<rect x="107.693" y="125" width="7" height="18.9539" rx="3.5" transform="rotate(38.0922 107.693 125)" fill="#F2F2F2" fill-opacity="0.05"/>
<rect x="236.693" y="11" width="7" height="18.9539" rx="3.5" transform="rotate(38.0922 236.693 11)" fill="#F2F2F2" fill-opacity="0.05"/>
<rect x="165.693" y="82" width="7" height="18.9539" rx="3.5" transform="rotate(38.0922 165.693 82)" fill="#F2F2F2" fill-opacity="0.05"/>
<rect x="182.693" y="177" width="7" height="18.9539" rx="3.5" transform="rotate(38.0922 182.693 177)" fill="#F2F2F2" fill-opacity="0.05"/>
<rect x="187.693" y="221" width="7" height="18.9539" rx="3.5" transform="rotate(38.0922 187.693 221)" fill="#F2F2F2" fill-opacity="0.05"/>
<rect x="110.693" y="246" width="7" height="18.9539" rx="3.5" transform="rotate(38.0922 110.693 246)" fill="#F2F2F2" fill-opacity="0.05"/>
<rect x="50.6931" y="150" width="7" height="18.9539" rx="3.5" transform="rotate(38.0922 50.6931 150)" fill="#F2F2F2" fill-opacity="0.05"/>
<rect x="150.693" y="4" width="7" height="18.9539" rx="3.5" transform="rotate(38.0922 150.693 4)" fill="#F2F2F2" fill-opacity="0.05"/>
<rect x="124.693" y="177" width="7" height="18.9539" rx="3.5" transform="rotate(38.0922 124.693 177)" fill="#F2F2F2" fill-opacity="0.05"/>
<rect x="204.693" y="48" width="7" height="18.9539" rx="3.5" transform="rotate(38.0922 204.693 48)" fill="#F2F2F2" fill-opacity="0.05"/>
<rect x="111.513" y="97.9604" width="7" height="18.9539" rx="3.5" transform="rotate(147.499 111.513 97.9604)" fill="#F2F2F2" fill-opacity="0.05"/>
<rect x="564.088" y="29.9854" width="7" height="18.9539" rx="3.5" transform="rotate(147.499 564.088 29.9854)" fill="#F2F2F2" fill-opacity="0.05"/>
<rect x="580.085" y="81.5342" width="7" height="18.9539" rx="3.5" transform="rotate(147.499 580.085 81.5342)" fill="#F2F2F2" fill-opacity="0.05"/>
<rect x="271.088" y="255.985" width="7" height="18.9539" rx="3.5" transform="rotate(147.499 271.088 255.985)" fill="#F2F2F2" fill-opacity="0.05"/>
<rect x="480.758" y="306.301" width="7" height="18.9539" rx="3.5" transform="rotate(147.499 480.758 306.301)" fill="#F2F2F2" fill-opacity="0.05"/>
<rect x="383.088" y="431.985" width="7" height="18.9539" rx="3.5" transform="rotate(147.499 383.088 431.985)" fill="#F2F2F2" fill-opacity="0.05"/>
<rect x="220.088" y="372.985" width="7" height="18.9539" rx="3.5" transform="rotate(147.499 220.088 372.985)" fill="#F2F2F2" fill-opacity="0.05"/>
<rect x="226.088" y="279.985" width="7" height="18.9539" rx="3.5" transform="rotate(147.499 226.088 279.985)" fill="#F2F2F2" fill-opacity="0.05"/>
<rect x="348.093" y="53.8791" width="7" height="18.9539" rx="3.5" transform="rotate(147.499 348.093 53.8791)" fill="#F2F2F2" fill-opacity="0.05"/>
<rect x="492.088" y="25.9854" width="7" height="18.9539" rx="3.5" transform="rotate(147.499 492.088 25.9854)" fill="#F2F2F2" fill-opacity="0.05"/>
<rect x="540.213" y="194.716" width="7" height="18.9539" rx="3.5" transform="rotate(147.499 540.213 194.716)" fill="#F2F2F2" fill-opacity="0.05"/>
<rect x="28.9463" y="50.9854" width="7" height="18.9539" rx="3.5" transform="rotate(147.499 28.9463 50.9854)" fill="#F2F2F2" fill-opacity="0.05"/>
<rect x="184.088" y="380.985" width="7" height="18.9539" rx="3.5" transform="rotate(147.499 184.088 380.985)" fill="#F2F2F2" fill-opacity="0.05"/>
<rect x="26.6934" y="464" width="7" height="18.9539" rx="3.5" transform="rotate(38.0922 26.6934 464)" fill="#F2F2F2" fill-opacity="0.05"/>
<rect x="154.088" y="427.985" width="7" height="18.9539" rx="3.5" transform="rotate(147.499 154.088 427.985)" fill="#F2F2F2" fill-opacity="0.05"/>
<rect x="291.088" y="365.145" width="7" height="18.9539" rx="3.5" transform="rotate(147.499 291.088 365.145)" fill="#F2F2F2" fill-opacity="0.05"/>
<rect x="82.088" y="461.96" width="7" height="18.9539" rx="3.5" transform="rotate(147.499 82.088 461.96)" fill="#F2F2F2" fill-opacity="0.05"/>
<rect x="28.0879" y="423.786" width="7" height="18.9539" rx="3.5" transform="rotate(147.499 28.0879 423.786)" fill="#F2F2F2" fill-opacity="0.05"/>
<rect x="93.088" y="407.985" width="7" height="18.9539" rx="3.5" transform="rotate(147.499 93.088 407.985)" fill="#F2F2F2" fill-opacity="0.05"/>
<rect x="146.088" y="488.985" width="7" height="18.9539" rx="3.5" transform="rotate(147.499 146.088 488.985)" fill="#F2F2F2" fill-opacity="0.05"/>
<rect x="14.6934" y="203" width="7" height="18.9539" rx="3.5" transform="rotate(38.0922 14.6934 203)" fill="#F2F2F2" fill-opacity="0.05"/>
<rect x="28.6934" y="252" width="7" height="18.9539" rx="3.5" transform="rotate(38.0922 28.6934 252)" fill="#F2F2F2" fill-opacity="0.05"/>
<rect x="56.6934" y="310" width="7" height="18.9539" rx="3.5" transform="rotate(38.0922 56.6934 310)" fill="#F2F2F2" fill-opacity="0.05"/>
<rect x="86.6933" y="192" width="7" height="18.9539" rx="3.5" transform="rotate(38.0922 86.6933 192)" fill="#F2F2F2" fill-opacity="0.05"/>
<rect x="132.088" y="349.985" width="7" height="18.9539" rx="3.5" transform="rotate(147.499 132.088 349.985)" fill="#F2F2F2" fill-opacity="0.05"/>
<rect x="246.878" y="84" width="7" height="18.9539" rx="3.5" transform="rotate(84.8569 246.878 84)" fill="#F2F2F2" fill-opacity="0.05"/>
<rect x="269.391" y="166.318" width="7" height="18.9539" rx="3.5" transform="rotate(-165.736 269.391 166.318)" fill="#F2F2F2" fill-opacity="0.05"/>
<rect x="160.088" y="285.985" width="7" height="18.9539" rx="3.5" transform="rotate(147.499 160.088 285.985)" fill="#F2F2F2" fill-opacity="0.05"/>
<rect x="307.693" y="177" width="7" height="18.9539" rx="3.5" transform="rotate(38.0922 307.693 177)" fill="#F2F2F2" fill-opacity="0.05"/>
<rect x="225.693" y="215" width="7" height="18.9539" rx="3.5" transform="rotate(38.0922 225.693 215)" fill="#F2F2F2" fill-opacity="0.05"/>
<rect x="242.693" y="310" width="7" height="18.9539" rx="3.5" transform="rotate(38.0922 242.693 310)" fill="#F2F2F2" fill-opacity="0.05"/>
<rect x="248.693" y="391" width="7" height="18.9539" rx="3.5" transform="rotate(38.0922 248.693 391)" fill="#F2F2F2" fill-opacity="0.05"/>
<rect x="184.693" y="310" width="7" height="18.9539" rx="3.5" transform="rotate(38.0922 184.693 310)" fill="#F2F2F2" fill-opacity="0.05"/>
<rect x="441.693" y="170" width="7" height="18.9539" rx="3.5" transform="rotate(38.0922 441.693 170)" fill="#F2F2F2" fill-opacity="0.05"/>
<rect x="379.088" y="349.985" width="7" height="18.9539" rx="3.5" transform="rotate(147.499 379.088 349.985)" fill="#F2F2F2" fill-opacity="0.05"/>
<rect x="543.93" y="162.836" width="7" height="18.9539" rx="3.5" transform="rotate(129.322 543.93 162.836)" fill="#F2F2F2" fill-opacity="0.05"/>
<rect x="496.099" y="129.011" width="7" height="18.9539" rx="3.5" transform="rotate(129.322 496.099 129.011)" fill="#F2F2F2" fill-opacity="0.05"/>
<rect x="75.7805" y="95.9723" width="7" height="18.9539" rx="3.5" transform="rotate(129.322 75.7805 95.9723)" fill="#F2F2F2" fill-opacity="0.05"/>
<rect x="439.099" y="113.011" width="7" height="18.9539" rx="3.5" transform="rotate(129.322 439.099 113.011)" fill="#F2F2F2" fill-opacity="0.05"/>
<rect x="397.099" y="20.0106" width="7" height="18.9539" rx="3.5" transform="rotate(129.322 397.099 20.0106)" fill="#F2F2F2" fill-opacity="0.05"/>
<rect x="150.733" y="145.592" width="7" height="18.9539" rx="3.5" transform="rotate(129.322 150.733 145.592)" fill="#F2F2F2" fill-opacity="0.05"/>
<rect x="76.2844" y="166.394" width="7" height="18.9539" rx="3.5" transform="rotate(-121.272 76.2844 166.394)" fill="#F2F2F2" fill-opacity="0.05"/>
<rect x="313.634" y="132.822" width="7" height="18.9539" rx="3.5" transform="rotate(-121.272 313.634 132.822)" fill="#F2F2F2" fill-opacity="0.05"/>
<rect x="382.634" y="198.822" width="7" height="18.9539" rx="3.5" transform="rotate(-121.272 382.634 198.822)" fill="#F2F2F2" fill-opacity="0.05"/>
<rect x="420.634" y="74.822" width="7" height="18.9539" rx="3.5" transform="rotate(-121.272 420.634 74.822)" fill="#F2F2F2" fill-opacity="0.05"/>
<rect x="73.0986" y="220.944" width="7" height="18.9539" rx="3.5" transform="rotate(129.322 73.0986 220.944)" fill="#F2F2F2" fill-opacity="0.05"/>
<rect x="398.099" y="137.011" width="7" height="18.9539" rx="3.5" transform="rotate(129.322 398.099 137.011)" fill="#F2F2F2" fill-opacity="0.05"/>
<rect x="247.099" y="167.011" width="7" height="18.9539" rx="3.5" transform="rotate(129.322 247.099 167.011)" fill="#F2F2F2" fill-opacity="0.05"/>
<rect x="288.099" y="74.0106" width="7" height="18.9539" rx="3.5" transform="rotate(129.322 288.099 74.0106)" fill="#F2F2F2" fill-opacity="0.05"/>
<rect x="386.099" y="237.011" width="7" height="18.9539" rx="3.5" transform="rotate(129.322 386.099 237.011)" fill="#F2F2F2" fill-opacity="0.05"/>
<rect x="297.634" y="241.822" width="7" height="18.9539" rx="3.5" transform="rotate(-121.272 297.634 241.822)" fill="#F2F2F2" fill-opacity="0.05"/>
<rect x="558.287" y="314" width="7" height="18.9539" rx="3.5" transform="rotate(25.9258 558.287 314)" fill="#F2F2F2" fill-opacity="0.05"/>
<rect x="228.39" y="471.301" width="7" height="18.9539" rx="3.5" transform="rotate(-155.909 228.39 471.301)" fill="#F2F2F2" fill-opacity="0.05"/>
<rect x="359.093" y="274.678" width="7" height="18.9539" rx="3.5" transform="rotate(147.499 359.093 274.678)" fill="#F2F2F2" fill-opacity="0.05"/>
<rect x="469.575" y="249.985" width="7" height="18.9539" rx="3.5" transform="rotate(147.499 469.575 249.985)" fill="#F2F2F2" fill-opacity="0.05"/>
<rect x="485" y="463.512" width="7" height="18.9539" rx="3.5" transform="rotate(-83.4808 485 463.512)" fill="#F2F2F2" fill-opacity="0.05"/>
<rect x="542.464" y="448.151" width="7" height="18.9539" rx="3.5" transform="rotate(-83.4808 542.464 448.151)" fill="#F2F2F2" fill-opacity="0.05"/>
<rect x="324.088" y="528.785" width="7" height="18.9539" rx="3.5" transform="rotate(147.499 324.088 528.785)" fill="#F2F2F2" fill-opacity="0.05"/>
<rect x="518.698" y="300.839" width="7" height="18.9539" rx="3.5" transform="rotate(129.322 518.698 300.839)" fill="#F2F2F2" fill-opacity="0.05"/>
<rect x="296.258" y="315.011" width="7" height="18.9539" rx="3.5" transform="rotate(129.322 296.258 315.011)" fill="#F2F2F2" fill-opacity="0.05"/>
<rect x="424.6" y="257.81" width="7" height="18.9539" rx="3.5" transform="rotate(129.322 424.6 257.81)" fill="#F2F2F2" fill-opacity="0.05"/>
<rect x="363.382" y="470.352" width="7" height="18.9539" rx="3.5" transform="rotate(-38.3717 363.382 470.352)" fill="#F2F2F2" fill-opacity="0.05"/>
<rect x="422.535" y="454.391" width="7" height="18.9539" rx="3.5" transform="rotate(-121.272 422.535 454.391)" fill="#F2F2F2" fill-opacity="0.05"/>
<rect x="314.88" y="290.858" width="7" height="18.9539" rx="3.5" transform="rotate(-121.272 314.88 290.858)" fill="#F2F2F2" fill-opacity="0.05"/>
<rect x="432.099" y="370.011" width="7" height="18.9539" rx="3.5" transform="rotate(129.322 432.099 370.011)" fill="#F2F2F2" fill-opacity="0.05"/>
<rect x="340.922" y="482.699" width="7" height="18.9539" rx="3.5" transform="rotate(-147.778 340.922 482.699)" fill="#F2F2F2" fill-opacity="0.05"/>
<rect x="468.618" y="418.767" width="7" height="18.9539" rx="3.5" transform="rotate(-147.778 468.618 418.767)" fill="#F2F2F2" fill-opacity="0.05"/>
<rect x="448.051" y="476.549" width="7" height="18.9539" rx="3.5" transform="rotate(129.322 448.051 476.549)" fill="#F2F2F2" fill-opacity="0.05"/>
<rect x="539.04" y="464.446" width="7" height="18.9539" rx="3.5" transform="rotate(117.155 539.04 464.446)" fill="#F2F2F2" fill-opacity="0.05"/>
<rect x="331.088" y="540.985" width="7" height="18.9539" rx="3.5" transform="rotate(147.499 331.088 540.985)" fill="#F2F2F2" fill-opacity="0.05"/>
<rect x="298.39" y="466.16" width="7" height="18.9539" rx="3.5" transform="rotate(-155.909 298.39 466.16)" fill="#F2F2F2" fill-opacity="0.05"/>
<rect x="266.088" y="492.985" width="7" height="18.9539" rx="3.5" transform="rotate(147.499 266.088 492.985)" fill="#F2F2F2" fill-opacity="0.05"/>
<rect x="244.088" y="513.985" width="7" height="18.9539" rx="3.5" transform="rotate(147.499 244.088 513.985)" fill="#F2F2F2" fill-opacity="0.05"/>
<rect x="192.088" y="482.985" width="7" height="18.9539" rx="3.5" transform="rotate(147.499 192.088 482.985)" fill="#F2F2F2" fill-opacity="0.05"/>
<rect x="220.088" y="418.985" width="7" height="18.9539" rx="3.5" transform="rotate(147.499 220.088 418.985)" fill="#F2F2F2" fill-opacity="0.05"/>
<rect x="304.485" y="412.778" width="7" height="18.9539" rx="3.5" transform="rotate(-37.7609 304.485 412.778)" fill="#F2F2F2" fill-opacity="0.05"/>
<rect x="333.746" y="348.826" width="7" height="18.9539" rx="3.5" transform="rotate(-37.7609 333.746 348.826)" fill="#F2F2F2" fill-opacity="0.05"/>
<rect x="536.882" y="284.721" width="7" height="18.9539" rx="3.5" transform="rotate(-147.167 536.882 284.721)" fill="#F2F2F2" fill-opacity="0.05"/>
<rect x="254.882" y="448.721" width="7" height="18.9539" rx="3.5" transform="rotate(-147.167 254.882 448.721)" fill="#F2F2F2" fill-opacity="0.05"/>
<rect x="339.65" y="419.568" width="7" height="18.9539" rx="3.5" transform="rotate(-147.167 339.65 419.568)" fill="#F2F2F2" fill-opacity="0.05"/>
<rect x="400" y="396.287" width="7" height="18.9539" rx="3.5" transform="rotate(-37.7609 400 396.287)" fill="#F2F2F2" fill-opacity="0.05"/>
<rect x="473.098" y="77.0106" width="7" height="18.9539" rx="3.5" transform="rotate(129.322 473.098 77.0106)" fill="#F2F2F2" fill-opacity="0.05"/>
<rect x="486.39" y="416.301" width="7" height="18.9539" rx="3.5" transform="rotate(-155.909 486.39 416.301)" fill="#F2F2F2" fill-opacity="0.05"/>
<rect x="419.483" y="297.955" width="7" height="18.9539" rx="3.5" transform="rotate(-83.4808 419.483 297.955)" fill="#F2F2F2" fill-opacity="0.05"/>
<rect x="517.076" y="392.34" width="7" height="18.9539" rx="3.5" transform="rotate(117.155 517.076 392.34)" fill="#F2F2F2" fill-opacity="0.05"/>
<rect x="522.594" y="359" width="7" height="18.9539" rx="3.5" transform="rotate(7.74856 522.594 359)" fill="#F2F2F2" fill-opacity="0.05"/>
<rect x="416.06" y="314.25" width="7" height="18.9539" rx="3.5" transform="rotate(117.155 416.06 314.25)" fill="#F2F2F2" fill-opacity="0.05"/>
<rect x="568.046" y="406.962" width="7" height="18.9539" rx="3.5" transform="rotate(82.5175 568.046 406.962)" fill="#F2F2F2" fill-opacity="0.05"/>
<rect x="478.088" y="363.985" width="7" height="18.9539" rx="3.5" transform="rotate(147.499 478.088 363.985)" fill="#F2F2F2" fill-opacity="0.05"/>
<rect x="42.088" y="376.985" width="7" height="18.9539" rx="3.5" transform="rotate(147.499 42.088 376.985)" fill="#F2F2F2" fill-opacity="0.05"/>
<rect x="688.503" y="43.2198" width="7" height="18.9539" rx="3.5" transform="rotate(38.0922 688.503 43.2198)" fill="#F2F2F2" fill-opacity="0.05"/>
<rect x="609.693" y="82" width="7" height="18.9539" rx="3.5" transform="rotate(38.0922 609.693 82)" fill="#F2F2F2" fill-opacity="0.05"/>
<rect x="645.693" y="14" width="7" height="18.9539" rx="3.5" transform="rotate(38.0922 645.693 14)" fill="#F2F2F2" fill-opacity="0.05"/>
<rect x="693.693" y="121" width="7" height="18.9539" rx="3.5" transform="rotate(38.0922 693.693 121)" fill="#F2F2F2" fill-opacity="0.05"/>
<rect x="822.693" y="7" width="7" height="18.9539" rx="3.5" transform="rotate(38.0922 822.693 7)" fill="#F2F2F2" fill-opacity="0.05"/>
<rect x="751.693" y="78" width="7" height="18.9539" rx="3.5" transform="rotate(38.0922 751.693 78)" fill="#F2F2F2" fill-opacity="0.05"/>
<rect x="768.693" y="173" width="7" height="18.9539" rx="3.5" transform="rotate(38.0922 768.693 173)" fill="#F2F2F2" fill-opacity="0.05"/>
<rect x="773.693" y="217" width="7" height="18.9539" rx="3.5" transform="rotate(38.0922 773.693 217)" fill="#F2F2F2" fill-opacity="0.05"/>
<rect x="696.693" y="242" width="7" height="18.9539" rx="3.5" transform="rotate(38.0922 696.693 242)" fill="#F2F2F2" fill-opacity="0.05"/>
<rect x="636.693" y="146" width="7" height="18.9539" rx="3.5" transform="rotate(38.0922 636.693 146)" fill="#F2F2F2" fill-opacity="0.05"/>
<rect x="736.693" width="7" height="18.9539" rx="3.5" transform="rotate(38.0922 736.693 0)" fill="#F2F2F2" fill-opacity="0.05"/>
<rect x="710.693" y="173" width="7" height="18.9539" rx="3.5" transform="rotate(38.0922 710.693 173)" fill="#F2F2F2" fill-opacity="0.05"/>
<rect x="790.693" y="44" width="7" height="18.9539" rx="3.5" transform="rotate(38.0922 790.693 44)" fill="#F2F2F2" fill-opacity="0.05"/>
<rect x="697.513" y="93.9604" width="7" height="18.9539" rx="3.5" transform="rotate(147.499 697.513 93.9604)" fill="#F2F2F2" fill-opacity="0.05"/>
<rect x="1150.09" y="25.9854" width="7" height="18.9539" rx="3.5" transform="rotate(147.499 1150.09 25.9854)" fill="#F2F2F2" fill-opacity="0.05"/>
<rect x="1166.08" y="77.5342" width="7" height="18.9539" rx="3.5" transform="rotate(147.499 1166.08 77.5342)" fill="#F2F2F2" fill-opacity="0.05"/>
<rect x="857.088" y="251.985" width="7" height="18.9539" rx="3.5" transform="rotate(147.499 857.088 251.985)" fill="#F2F2F2" fill-opacity="0.05"/>
<rect x="1066.76" y="302.301" width="7" height="18.9539" rx="3.5" transform="rotate(147.499 1066.76 302.301)" fill="#F2F2F2" fill-opacity="0.05"/>
<rect x="969.088" y="427.985" width="7" height="18.9539" rx="3.5" transform="rotate(147.499 969.088 427.985)" fill="#F2F2F2" fill-opacity="0.05"/>
<rect x="806.088" y="368.985" width="7" height="18.9539" rx="3.5" transform="rotate(147.499 806.088 368.985)" fill="#F2F2F2" fill-opacity="0.05"/>
<rect x="812.088" y="275.985" width="7" height="18.9539" rx="3.5" transform="rotate(147.499 812.088 275.985)" fill="#F2F2F2" fill-opacity="0.05"/>
<rect x="934.093" y="49.8791" width="7" height="18.9539" rx="3.5" transform="rotate(147.499 934.093 49.8791)" fill="#F2F2F2" fill-opacity="0.05"/>
<rect x="1078.09" y="21.9854" width="7" height="18.9539" rx="3.5" transform="rotate(147.499 1078.09 21.9854)" fill="#F2F2F2" fill-opacity="0.05"/>
<rect x="1126.21" y="190.716" width="7" height="18.9539" rx="3.5" transform="rotate(147.499 1126.21 190.716)" fill="#F2F2F2" fill-opacity="0.05"/>
<rect x="614.946" y="46.9854" width="7" height="18.9539" rx="3.5" transform="rotate(147.499 614.946 46.9854)" fill="#F2F2F2" fill-opacity="0.05"/>
<rect x="770.088" y="376.985" width="7" height="18.9539" rx="3.5" transform="rotate(147.499 770.088 376.985)" fill="#F2F2F2" fill-opacity="0.05"/>
<rect x="612.693" y="460" width="7" height="18.9539" rx="3.5" transform="rotate(38.0922 612.693 460)" fill="#F2F2F2" fill-opacity="0.05"/>
<rect x="740.088" y="423.985" width="7" height="18.9539" rx="3.5" transform="rotate(147.499 740.088 423.985)" fill="#F2F2F2" fill-opacity="0.05"/>
<rect x="877.088" y="361.145" width="7" height="18.9539" rx="3.5" transform="rotate(147.499 877.088 361.145)" fill="#F2F2F2" fill-opacity="0.05"/>
<rect x="668.088" y="457.96" width="7" height="18.9539" rx="3.5" transform="rotate(147.499 668.088 457.96)" fill="#F2F2F2" fill-opacity="0.05"/>
<rect x="614.088" y="419.786" width="7" height="18.9539" rx="3.5" transform="rotate(147.499 614.088 419.786)" fill="#F2F2F2" fill-opacity="0.05"/>
<rect x="679.088" y="403.985" width="7" height="18.9539" rx="3.5" transform="rotate(147.499 679.088 403.985)" fill="#F2F2F2" fill-opacity="0.05"/>
<rect x="732.088" y="484.985" width="7" height="18.9539" rx="3.5" transform="rotate(147.499 732.088 484.985)" fill="#F2F2F2" fill-opacity="0.05"/>
<rect x="600.693" y="199" width="7" height="18.9539" rx="3.5" transform="rotate(38.0922 600.693 199)" fill="#F2F2F2" fill-opacity="0.05"/>
<rect x="614.693" y="248" width="7" height="18.9539" rx="3.5" transform="rotate(38.0922 614.693 248)" fill="#F2F2F2" fill-opacity="0.05"/>
<rect x="642.693" y="306" width="7" height="18.9539" rx="3.5" transform="rotate(38.0922 642.693 306)" fill="#F2F2F2" fill-opacity="0.05"/>
<rect x="672.693" y="188" width="7" height="18.9539" rx="3.5" transform="rotate(38.0922 672.693 188)" fill="#F2F2F2" fill-opacity="0.05"/>
<rect x="718.088" y="345.985" width="7" height="18.9539" rx="3.5" transform="rotate(147.499 718.088 345.985)" fill="#F2F2F2" fill-opacity="0.05"/>
<rect x="832.878" y="80" width="7" height="18.9539" rx="3.5" transform="rotate(84.8569 832.878 80)" fill="#F2F2F2" fill-opacity="0.05"/>
<rect x="855.391" y="162.318" width="7" height="18.9539" rx="3.5" transform="rotate(-165.736 855.391 162.318)" fill="#F2F2F2" fill-opacity="0.05"/>
<rect x="746.088" y="281.985" width="7" height="18.9539" rx="3.5" transform="rotate(147.499 746.088 281.985)" fill="#F2F2F2" fill-opacity="0.05"/>
<rect x="893.693" y="173" width="7" height="18.9539" rx="3.5" transform="rotate(38.0922 893.693 173)" fill="#F2F2F2" fill-opacity="0.05"/>
<rect x="811.693" y="211" width="7" height="18.9539" rx="3.5" transform="rotate(38.0922 811.693 211)" fill="#F2F2F2" fill-opacity="0.05"/>
<rect x="828.693" y="306" width="7" height="18.9539" rx="3.5" transform="rotate(38.0922 828.693 306)" fill="#F2F2F2" fill-opacity="0.05"/>
<rect x="834.693" y="387" width="7" height="18.9539" rx="3.5" transform="rotate(38.0922 834.693 387)" fill="#F2F2F2" fill-opacity="0.05"/>
<rect x="770.693" y="306" width="7" height="18.9539" rx="3.5" transform="rotate(38.0922 770.693 306)" fill="#F2F2F2" fill-opacity="0.05"/>
<rect x="1027.69" y="166" width="7" height="18.9539" rx="3.5" transform="rotate(38.0922 1027.69 166)" fill="#F2F2F2" fill-opacity="0.05"/>
<rect x="965.088" y="345.985" width="7" height="18.9539" rx="3.5" transform="rotate(147.499 965.088 345.985)" fill="#F2F2F2" fill-opacity="0.05"/>
<rect x="1129.93" y="158.836" width="7" height="18.9539" rx="3.5" transform="rotate(129.322 1129.93 158.836)" fill="#F2F2F2" fill-opacity="0.05"/>
<rect x="1082.1" y="125.011" width="7" height="18.9539" rx="3.5" transform="rotate(129.322 1082.1 125.011)" fill="#F2F2F2" fill-opacity="0.05"/>
<rect x="661.78" y="91.9723" width="7" height="18.9539" rx="3.5" transform="rotate(129.322 661.78 91.9723)" fill="#F2F2F2" fill-opacity="0.05"/>
<rect x="1025.1" y="109.011" width="7" height="18.9539" rx="3.5" transform="rotate(129.322 1025.1 109.011)" fill="#F2F2F2" fill-opacity="0.05"/>
<rect x="983.099" y="16.0106" width="7" height="18.9539" rx="3.5" transform="rotate(129.322 983.099 16.0106)" fill="#F2F2F2" fill-opacity="0.05"/>
<rect x="736.733" y="141.592" width="7" height="18.9539" rx="3.5" transform="rotate(129.322 736.733 141.592)" fill="#F2F2F2" fill-opacity="0.05"/>
<rect x="662.284" y="162.394" width="7" height="18.9539" rx="3.5" transform="rotate(-121.272 662.284 162.394)" fill="#F2F2F2" fill-opacity="0.05"/>
<rect x="899.634" y="128.822" width="7" height="18.9539" rx="3.5" transform="rotate(-121.272 899.634 128.822)" fill="#F2F2F2" fill-opacity="0.05"/>
<rect x="968.634" y="194.822" width="7" height="18.9539" rx="3.5" transform="rotate(-121.272 968.634 194.822)" fill="#F2F2F2" fill-opacity="0.05"/>
<rect x="1006.63" y="70.822" width="7" height="18.9539" rx="3.5" transform="rotate(-121.272 1006.63 70.822)" fill="#F2F2F2" fill-opacity="0.05"/>
<rect x="659.099" y="216.944" width="7" height="18.9539" rx="3.5" transform="rotate(129.322 659.099 216.944)" fill="#F2F2F2" fill-opacity="0.05"/>
<rect x="984.099" y="133.011" width="7" height="18.9539" rx="3.5" transform="rotate(129.322 984.099 133.011)" fill="#F2F2F2" fill-opacity="0.05"/>
<rect x="833.099" y="163.011" width="7" height="18.9539" rx="3.5" transform="rotate(129.322 833.099 163.011)" fill="#F2F2F2" fill-opacity="0.05"/>
<rect x="874.099" y="70.0106" width="7" height="18.9539" rx="3.5" transform="rotate(129.322 874.099 70.0106)" fill="#F2F2F2" fill-opacity="0.05"/>
<rect x="972.099" y="233.011" width="7" height="18.9539" rx="3.5" transform="rotate(129.322 972.099 233.011)" fill="#F2F2F2" fill-opacity="0.05"/>
<rect x="883.634" y="237.822" width="7" height="18.9539" rx="3.5" transform="rotate(-121.272 883.634 237.822)" fill="#F2F2F2" fill-opacity="0.05"/>
<rect x="1144.29" y="310" width="7" height="18.9539" rx="3.5" transform="rotate(25.9258 1144.29 310)" fill="#F2F2F2" fill-opacity="0.05"/>
<rect x="814.39" y="467.301" width="7" height="18.9539" rx="3.5" transform="rotate(-155.909 814.39 467.301)" fill="#F2F2F2" fill-opacity="0.05"/>
<rect x="945.093" y="270.678" width="7" height="18.9539" rx="3.5" transform="rotate(147.499 945.093 270.678)" fill="#F2F2F2" fill-opacity="0.05"/>
<rect x="1055.57" y="245.985" width="7" height="18.9539" rx="3.5" transform="rotate(147.499 1055.57 245.985)" fill="#F2F2F2" fill-opacity="0.05"/>
<rect x="1071" y="459.512" width="7" height="18.9539" rx="3.5" transform="rotate(-83.4808 1071 459.512)" fill="#F2F2F2" fill-opacity="0.05"/>
<rect x="1128.46" y="444.151" width="7" height="18.9539" rx="3.5" transform="rotate(-83.4808 1128.46 444.151)" fill="#F2F2F2" fill-opacity="0.05"/>
<rect x="910.088" y="524.785" width="7" height="18.9539" rx="3.5" transform="rotate(147.499 910.088 524.785)" fill="#F2F2F2" fill-opacity="0.05"/>
<rect x="1104.7" y="296.839" width="7" height="18.9539" rx="3.5" transform="rotate(129.322 1104.7 296.839)" fill="#F2F2F2" fill-opacity="0.05"/>
<rect x="882.258" y="311.011" width="7" height="18.9539" rx="3.5" transform="rotate(129.322 882.258 311.011)" fill="#F2F2F2" fill-opacity="0.05"/>
<rect x="1010.6" y="253.81" width="7" height="18.9539" rx="3.5" transform="rotate(129.322 1010.6 253.81)" fill="#F2F2F2" fill-opacity="0.05"/>
<rect x="949.382" y="466.352" width="7" height="18.9539" rx="3.5" transform="rotate(-38.3717 949.382 466.352)" fill="#F2F2F2" fill-opacity="0.05"/>
<rect x="1008.54" y="450.391" width="7" height="18.9539" rx="3.5" transform="rotate(-121.272 1008.54 450.391)" fill="#F2F2F2" fill-opacity="0.05"/>
<rect x="900.88" y="286.858" width="7" height="18.9539" rx="3.5" transform="rotate(-121.272 900.88 286.858)" fill="#F2F2F2" fill-opacity="0.05"/>
<rect x="1018.1" y="366.011" width="7" height="18.9539" rx="3.5" transform="rotate(129.322 1018.1 366.011)" fill="#F2F2F2" fill-opacity="0.05"/>
<rect x="926.922" y="478.699" width="7" height="18.9539" rx="3.5" transform="rotate(-147.778 926.922 478.699)" fill="#F2F2F2" fill-opacity="0.05"/>
<rect x="1054.62" y="414.767" width="7" height="18.9539" rx="3.5" transform="rotate(-147.778 1054.62 414.767)" fill="#F2F2F2" fill-opacity="0.05"/>
<rect x="1034.05" y="472.549" width="7" height="18.9539" rx="3.5" transform="rotate(129.322 1034.05 472.549)" fill="#F2F2F2" fill-opacity="0.05"/>
<rect x="1125.04" y="460.446" width="7" height="18.9539" rx="3.5" transform="rotate(117.155 1125.04 460.446)" fill="#F2F2F2" fill-opacity="0.05"/>
<rect x="917.088" y="536.985" width="7" height="18.9539" rx="3.5" transform="rotate(147.499 917.088 536.985)" fill="#F2F2F2" fill-opacity="0.05"/>
<rect x="884.39" y="462.16" width="7" height="18.9539" rx="3.5" transform="rotate(-155.909 884.39 462.16)" fill="#F2F2F2" fill-opacity="0.05"/>
<rect x="852.088" y="488.985" width="7" height="18.9539" rx="3.5" transform="rotate(147.499 852.088 488.985)" fill="#F2F2F2" fill-opacity="0.05"/>
<rect x="830.088" y="509.985" width="7" height="18.9539" rx="3.5" transform="rotate(147.499 830.088 509.985)" fill="#F2F2F2" fill-opacity="0.05"/>
<rect x="778.088" y="478.985" width="7" height="18.9539" rx="3.5" transform="rotate(147.499 778.088 478.985)" fill="#F2F2F2" fill-opacity="0.05"/>
<rect x="806.088" y="414.985" width="7" height="18.9539" rx="3.5" transform="rotate(147.499 806.088 414.985)" fill="#F2F2F2" fill-opacity="0.05"/>
<rect x="890.485" y="408.778" width="7" height="18.9539" rx="3.5" transform="rotate(-37.7609 890.485 408.778)" fill="#F2F2F2" fill-opacity="0.05"/>
<rect x="919.746" y="344.826" width="7" height="18.9539" rx="3.5" transform="rotate(-37.7609 919.746 344.826)" fill="#F2F2F2" fill-opacity="0.05"/>
<rect x="1122.88" y="280.721" width="7" height="18.9539" rx="3.5" transform="rotate(-147.167 1122.88 280.721)" fill="#F2F2F2" fill-opacity="0.05"/>
<rect x="840.882" y="444.721" width="7" height="18.9539" rx="3.5" transform="rotate(-147.167 840.882 444.721)" fill="#F2F2F2" fill-opacity="0.05"/>
<rect x="925.65" y="415.568" width="7" height="18.9539" rx="3.5" transform="rotate(-147.167 925.65 415.568)" fill="#F2F2F2" fill-opacity="0.05"/>
<rect x="986" y="392.287" width="7" height="18.9539" rx="3.5" transform="rotate(-37.7609 986 392.287)" fill="#F2F2F2" fill-opacity="0.05"/>
<rect x="1059.1" y="73.0106" width="7" height="18.9539" rx="3.5" transform="rotate(129.322 1059.1 73.0106)" fill="#F2F2F2" fill-opacity="0.05"/>
<rect x="1072.39" y="412.301" width="7" height="18.9539" rx="3.5" transform="rotate(-155.909 1072.39 412.301)" fill="#F2F2F2" fill-opacity="0.05"/>
<rect x="1005.48" y="293.955" width="7" height="18.9539" rx="3.5" transform="rotate(-83.4808 1005.48 293.955)" fill="#F2F2F2" fill-opacity="0.05"/>
<rect x="1103.08" y="388.34" width="7" height="18.9539" rx="3.5" transform="rotate(117.155 1103.08 388.34)" fill="#F2F2F2" fill-opacity="0.05"/>
<rect x="1108.59" y="355" width="7" height="18.9539" rx="3.5" transform="rotate(7.74856 1108.59 355)" fill="#F2F2F2" fill-opacity="0.05"/>
<rect x="1002.06" y="310.25" width="7" height="18.9539" rx="3.5" transform="rotate(117.155 1002.06 310.25)" fill="#F2F2F2" fill-opacity="0.05"/>
<rect x="1154.05" y="402.962" width="7" height="18.9539" rx="3.5" transform="rotate(82.5175 1154.05 402.962)" fill="#F2F2F2" fill-opacity="0.05"/>
<rect x="1064.09" y="359.985" width="7" height="18.9539" rx="3.5" transform="rotate(147.499 1064.09 359.985)" fill="#F2F2F2" fill-opacity="0.05"/>
<rect x="628.088" y="372.985" width="7" height="18.9539" rx="3.5" transform="rotate(147.499 628.088 372.985)" fill="#F2F2F2" fill-opacity="0.05"/>
<rect x="95.5032" y="518.22" width="7" height="18.9539" rx="3.5" transform="rotate(38.0922 95.5032 518.22)" fill="#F2F2F2" fill-opacity="0.05"/>
<rect x="16.6934" y="557" width="7" height="18.9539" rx="3.5" transform="rotate(38.0922 16.6934 557)" fill="#F2F2F2" fill-opacity="0.05"/>
<rect x="52.6931" y="489" width="7" height="18.9539" rx="3.5" transform="rotate(38.0922 52.6931 489)" fill="#F2F2F2" fill-opacity="0.05"/>
<rect x="100.693" y="596" width="7" height="18.9539" rx="3.5" transform="rotate(38.0922 100.693 596)" fill="#F2F2F2" fill-opacity="0.05"/>
<rect x="229.693" y="482" width="7" height="18.9539" rx="3.5" transform="rotate(38.0922 229.693 482)" fill="#F2F2F2" fill-opacity="0.05"/>
<rect x="158.693" y="553" width="7" height="18.9539" rx="3.5" transform="rotate(38.0922 158.693 553)" fill="#F2F2F2" fill-opacity="0.05"/>
<rect x="175.693" y="648" width="7" height="18.9539" rx="3.5" transform="rotate(38.0922 175.693 648)" fill="#F2F2F2" fill-opacity="0.05"/>
<rect x="180.693" y="692" width="7" height="18.9539" rx="3.5" transform="rotate(38.0922 180.693 692)" fill="#F2F2F2" fill-opacity="0.05"/>
<rect x="103.693" y="717" width="7" height="18.9539" rx="3.5" transform="rotate(38.0922 103.693 717)" fill="#F2F2F2" fill-opacity="0.05"/>
<rect x="43.6931" y="621" width="7" height="18.9539" rx="3.5" transform="rotate(38.0922 43.6931 621)" fill="#F2F2F2" fill-opacity="0.05"/>
<rect x="143.693" y="475" width="7" height="18.9539" rx="3.5" transform="rotate(38.0922 143.693 475)" fill="#F2F2F2" fill-opacity="0.05"/>
<rect x="117.693" y="648" width="7" height="18.9539" rx="3.5" transform="rotate(38.0922 117.693 648)" fill="#F2F2F2" fill-opacity="0.05"/>
<rect x="197.693" y="519" width="7" height="18.9539" rx="3.5" transform="rotate(38.0922 197.693 519)" fill="#F2F2F2" fill-opacity="0.05"/>
<rect x="104.513" y="568.96" width="7" height="18.9539" rx="3.5" transform="rotate(147.499 104.513 568.96)" fill="#F2F2F2" fill-opacity="0.05"/>
<rect x="557.088" y="500.985" width="7" height="18.9539" rx="3.5" transform="rotate(147.499 557.088 500.985)" fill="#F2F2F2" fill-opacity="0.05"/>
<rect x="573.085" y="552.534" width="7" height="18.9539" rx="3.5" transform="rotate(147.499 573.085 552.534)" fill="#F2F2F2" fill-opacity="0.05"/>
<rect x="264.088" y="726.985" width="7" height="18.9539" rx="3.5" transform="rotate(147.499 264.088 726.985)" fill="#F2F2F2" fill-opacity="0.05"/>
<rect x="473.758" y="777.301" width="7" height="18.9539" rx="3.5" transform="rotate(147.499 473.758 777.301)" fill="#F2F2F2" fill-opacity="0.05"/>
<rect x="376.088" y="902.985" width="7" height="18.9539" rx="3.5" transform="rotate(147.499 376.088 902.985)" fill="#F2F2F2" fill-opacity="0.05"/>
<rect x="213.088" y="843.985" width="7" height="18.9539" rx="3.5" transform="rotate(147.499 213.088 843.985)" fill="#F2F2F2" fill-opacity="0.05"/>
<rect x="219.088" y="750.985" width="7" height="18.9539" rx="3.5" transform="rotate(147.499 219.088 750.985)" fill="#F2F2F2" fill-opacity="0.05"/>
<rect x="341.093" y="524.879" width="7" height="18.9539" rx="3.5" transform="rotate(147.499 341.093 524.879)" fill="#F2F2F2" fill-opacity="0.05"/>
<rect x="485.088" y="496.985" width="7" height="18.9539" rx="3.5" transform="rotate(147.499 485.088 496.985)" fill="#F2F2F2" fill-opacity="0.05"/>
<rect x="533.213" y="665.716" width="7" height="18.9539" rx="3.5" transform="rotate(147.499 533.213 665.716)" fill="#F2F2F2" fill-opacity="0.05"/>
<rect x="21.9463" y="521.985" width="7" height="18.9539" rx="3.5" transform="rotate(147.499 21.9463 521.985)" fill="#F2F2F2" fill-opacity="0.05"/>
<rect x="177.088" y="851.985" width="7" height="18.9539" rx="3.5" transform="rotate(147.499 177.088 851.985)" fill="#F2F2F2" fill-opacity="0.05"/>
<rect x="19.6934" y="935" width="7" height="18.9539" rx="3.5" transform="rotate(38.0922 19.6934 935)" fill="#F2F2F2" fill-opacity="0.05"/>
<rect x="147.088" y="898.985" width="7" height="18.9539" rx="3.5" transform="rotate(147.499 147.088 898.985)" fill="#F2F2F2" fill-opacity="0.05"/>
<rect x="284.088" y="836.145" width="7" height="18.9539" rx="3.5" transform="rotate(147.499 284.088 836.145)" fill="#F2F2F2" fill-opacity="0.05"/>
<rect x="75.088" y="932.96" width="7" height="18.9539" rx="3.5" transform="rotate(147.499 75.088 932.96)" fill="#F2F2F2" fill-opacity="0.05"/>
<rect x="21.0879" y="894.786" width="7" height="18.9539" rx="3.5" transform="rotate(147.499 21.0879 894.786)" fill="#F2F2F2" fill-opacity="0.05"/>
<rect x="86.088" y="878.985" width="7" height="18.9539" rx="3.5" transform="rotate(147.499 86.088 878.985)" fill="#F2F2F2" fill-opacity="0.05"/>
<rect x="139.088" y="959.985" width="7" height="18.9539" rx="3.5" transform="rotate(147.499 139.088 959.985)" fill="#F2F2F2" fill-opacity="0.05"/>
<rect x="7.69336" y="674" width="7" height="18.9539" rx="3.5" transform="rotate(38.0922 7.69336 674)" fill="#F2F2F2" fill-opacity="0.05"/>
<rect x="21.6934" y="723" width="7" height="18.9539" rx="3.5" transform="rotate(38.0922 21.6934 723)" fill="#F2F2F2" fill-opacity="0.05"/>
<rect x="49.6934" y="781" width="7" height="18.9539" rx="3.5" transform="rotate(38.0922 49.6934 781)" fill="#F2F2F2" fill-opacity="0.05"/>
<rect x="79.6933" y="663" width="7" height="18.9539" rx="3.5" transform="rotate(38.0922 79.6933 663)" fill="#F2F2F2" fill-opacity="0.05"/>
<rect x="125.088" y="820.985" width="7" height="18.9539" rx="3.5" transform="rotate(147.499 125.088 820.985)" fill="#F2F2F2" fill-opacity="0.05"/>
<rect x="239.878" y="555" width="7" height="18.9539" rx="3.5" transform="rotate(84.8569 239.878 555)" fill="#F2F2F2" fill-opacity="0.05"/>
<rect x="262.391" y="637.318" width="7" height="18.9539" rx="3.5" transform="rotate(-165.736 262.391 637.318)" fill="#F2F2F2" fill-opacity="0.05"/>
<rect x="153.088" y="756.985" width="7" height="18.9539" rx="3.5" transform="rotate(147.499 153.088 756.985)" fill="#F2F2F2" fill-opacity="0.05"/>
<rect x="300.693" y="648" width="7" height="18.9539" rx="3.5" transform="rotate(38.0922 300.693 648)" fill="#F2F2F2" fill-opacity="0.05"/>
<rect x="218.693" y="686" width="7" height="18.9539" rx="3.5" transform="rotate(38.0922 218.693 686)" fill="#F2F2F2" fill-opacity="0.05"/>
<rect x="235.693" y="781" width="7" height="18.9539" rx="3.5" transform="rotate(38.0922 235.693 781)" fill="#F2F2F2" fill-opacity="0.05"/>
<rect x="241.693" y="862" width="7" height="18.9539" rx="3.5" transform="rotate(38.0922 241.693 862)" fill="#F2F2F2" fill-opacity="0.05"/>
<rect x="177.693" y="781" width="7" height="18.9539" rx="3.5" transform="rotate(38.0922 177.693 781)" fill="#F2F2F2" fill-opacity="0.05"/>
<rect x="434.693" y="641" width="7" height="18.9539" rx="3.5" transform="rotate(38.0922 434.693 641)" fill="#F2F2F2" fill-opacity="0.05"/>
<rect x="372.088" y="820.985" width="7" height="18.9539" rx="3.5" transform="rotate(147.499 372.088 820.985)" fill="#F2F2F2" fill-opacity="0.05"/>
<rect x="536.93" y="633.836" width="7" height="18.9539" rx="3.5" transform="rotate(129.322 536.93 633.836)" fill="#F2F2F2" fill-opacity="0.05"/>
<rect x="489.099" y="600.011" width="7" height="18.9539" rx="3.5" transform="rotate(129.322 489.099 600.011)" fill="#F2F2F2" fill-opacity="0.05"/>
<rect x="68.7805" y="566.972" width="7" height="18.9539" rx="3.5" transform="rotate(129.322 68.7805 566.972)" fill="#F2F2F2" fill-opacity="0.05"/>
<rect x="432.099" y="584.011" width="7" height="18.9539" rx="3.5" transform="rotate(129.322 432.099 584.011)" fill="#F2F2F2" fill-opacity="0.05"/>
<rect x="390.099" y="491.011" width="7" height="18.9539" rx="3.5" transform="rotate(129.322 390.099 491.011)" fill="#F2F2F2" fill-opacity="0.05"/>
<rect x="143.733" y="616.592" width="7" height="18.9539" rx="3.5" transform="rotate(129.322 143.733 616.592)" fill="#F2F2F2" fill-opacity="0.05"/>
<rect x="69.2844" y="637.394" width="7" height="18.9539" rx="3.5" transform="rotate(-121.272 69.2844 637.394)" fill="#F2F2F2" fill-opacity="0.05"/>
<rect x="306.634" y="603.822" width="7" height="18.9539" rx="3.5" transform="rotate(-121.272 306.634 603.822)" fill="#F2F2F2" fill-opacity="0.05"/>
<rect x="375.634" y="669.822" width="7" height="18.9539" rx="3.5" transform="rotate(-121.272 375.634 669.822)" fill="#F2F2F2" fill-opacity="0.05"/>
<rect x="413.634" y="545.822" width="7" height="18.9539" rx="3.5" transform="rotate(-121.272 413.634 545.822)" fill="#F2F2F2" fill-opacity="0.05"/>
<rect x="66.0986" y="691.944" width="7" height="18.9539" rx="3.5" transform="rotate(129.322 66.0986 691.944)" fill="#F2F2F2" fill-opacity="0.05"/>
<rect x="391.099" y="608.011" width="7" height="18.9539" rx="3.5" transform="rotate(129.322 391.099 608.011)" fill="#F2F2F2" fill-opacity="0.05"/>
<rect x="240.099" y="638.011" width="7" height="18.9539" rx="3.5" transform="rotate(129.322 240.099 638.011)" fill="#F2F2F2" fill-opacity="0.05"/>
<rect x="281.099" y="545.011" width="7" height="18.9539" rx="3.5" transform="rotate(129.322 281.099 545.011)" fill="#F2F2F2" fill-opacity="0.05"/>
<rect x="379.099" y="708.011" width="7" height="18.9539" rx="3.5" transform="rotate(129.322 379.099 708.011)" fill="#F2F2F2" fill-opacity="0.05"/>
<rect x="290.634" y="712.822" width="7" height="18.9539" rx="3.5" transform="rotate(-121.272 290.634 712.822)" fill="#F2F2F2" fill-opacity="0.05"/>
<rect x="551.287" y="785" width="7" height="18.9539" rx="3.5" transform="rotate(25.9258 551.287 785)" fill="#F2F2F2" fill-opacity="0.05"/>
<rect x="221.39" y="942.301" width="7" height="18.9539" rx="3.5" transform="rotate(-155.909 221.39 942.301)" fill="#F2F2F2" fill-opacity="0.05"/>
<rect x="352.093" y="745.678" width="7" height="18.9539" rx="3.5" transform="rotate(147.499 352.093 745.678)" fill="#F2F2F2" fill-opacity="0.05"/>
<rect x="462.575" y="720.985" width="7" height="18.9539" rx="3.5" transform="rotate(147.499 462.575 720.985)" fill="#F2F2F2" fill-opacity="0.05"/>
<rect x="478" y="934.512" width="7" height="18.9539" rx="3.5" transform="rotate(-83.4808 478 934.512)" fill="#F2F2F2" fill-opacity="0.05"/>
<rect x="535.464" y="919.151" width="7" height="18.9539" rx="3.5" transform="rotate(-83.4808 535.464 919.151)" fill="#F2F2F2" fill-opacity="0.05"/>
<rect x="317.088" y="999.785" width="7" height="18.9539" rx="3.5" transform="rotate(147.499 317.088 999.785)" fill="#F2F2F2" fill-opacity="0.05"/>
<rect x="511.698" y="771.839" width="7" height="18.9539" rx="3.5" transform="rotate(129.322 511.698 771.839)" fill="#F2F2F2" fill-opacity="0.05"/>
<rect x="289.258" y="786.011" width="7" height="18.9539" rx="3.5" transform="rotate(129.322 289.258 786.011)" fill="#F2F2F2" fill-opacity="0.05"/>
<rect x="417.6" y="728.81" width="7" height="18.9539" rx="3.5" transform="rotate(129.322 417.6 728.81)" fill="#F2F2F2" fill-opacity="0.05"/>
<rect x="356.382" y="941.352" width="7" height="18.9539" rx="3.5" transform="rotate(-38.3717 356.382 941.352)" fill="#F2F2F2" fill-opacity="0.05"/>
<rect x="415.535" y="925.391" width="7" height="18.9539" rx="3.5" transform="rotate(-121.272 415.535 925.391)" fill="#F2F2F2" fill-opacity="0.05"/>
<rect x="307.88" y="761.858" width="7" height="18.9539" rx="3.5" transform="rotate(-121.272 307.88 761.858)" fill="#F2F2F2" fill-opacity="0.05"/>
<rect x="425.099" y="841.011" width="7" height="18.9539" rx="3.5" transform="rotate(129.322 425.099 841.011)" fill="#F2F2F2" fill-opacity="0.05"/>
<rect x="333.922" y="953.699" width="7" height="18.9539" rx="3.5" transform="rotate(-147.778 333.922 953.699)" fill="#F2F2F2" fill-opacity="0.05"/>
<rect x="461.618" y="889.767" width="7" height="18.9539" rx="3.5" transform="rotate(-147.778 461.618 889.767)" fill="#F2F2F2" fill-opacity="0.05"/>
<rect x="441.051" y="947.549" width="7" height="18.9539" rx="3.5" transform="rotate(129.322 441.051 947.549)" fill="#F2F2F2" fill-opacity="0.05"/>
<rect x="532.04" y="935.446" width="7" height="18.9539" rx="3.5" transform="rotate(117.155 532.04 935.446)" fill="#F2F2F2" fill-opacity="0.05"/>
<rect x="324.088" y="1011.99" width="7" height="18.9539" rx="3.5" transform="rotate(147.499 324.088 1011.99)" fill="#F2F2F2" fill-opacity="0.05"/>
<rect x="291.39" y="937.16" width="7" height="18.9539" rx="3.5" transform="rotate(-155.909 291.39 937.16)" fill="#F2F2F2" fill-opacity="0.05"/>
<rect x="259.088" y="963.985" width="7" height="18.9539" rx="3.5" transform="rotate(147.499 259.088 963.985)" fill="#F2F2F2" fill-opacity="0.05"/>
<rect x="237.088" y="984.985" width="7" height="18.9539" rx="3.5" transform="rotate(147.499 237.088 984.985)" fill="#F2F2F2" fill-opacity="0.05"/>
<rect x="185.088" y="953.985" width="7" height="18.9539" rx="3.5" transform="rotate(147.499 185.088 953.985)" fill="#F2F2F2" fill-opacity="0.05"/>
<rect x="213.088" y="889.985" width="7" height="18.9539" rx="3.5" transform="rotate(147.499 213.088 889.985)" fill="#F2F2F2" fill-opacity="0.05"/>
<rect x="297.485" y="883.778" width="7" height="18.9539" rx="3.5" transform="rotate(-37.7609 297.485 883.778)" fill="#F2F2F2" fill-opacity="0.05"/>
<rect x="326.746" y="819.826" width="7" height="18.9539" rx="3.5" transform="rotate(-37.7609 326.746 819.826)" fill="#F2F2F2" fill-opacity="0.05"/>
<rect x="529.882" y="755.721" width="7" height="18.9539" rx="3.5" transform="rotate(-147.167 529.882 755.721)" fill="#F2F2F2" fill-opacity="0.05"/>
<rect x="247.882" y="919.721" width="7" height="18.9539" rx="3.5" transform="rotate(-147.167 247.882 919.721)" fill="#F2F2F2" fill-opacity="0.05"/>
<rect x="332.65" y="890.568" width="7" height="18.9539" rx="3.5" transform="rotate(-147.167 332.65 890.568)" fill="#F2F2F2" fill-opacity="0.05"/>
<rect x="393" y="867.287" width="7" height="18.9539" rx="3.5" transform="rotate(-37.7609 393 867.287)" fill="#F2F2F2" fill-opacity="0.05"/>
<rect x="466.098" y="548.011" width="7" height="18.9539" rx="3.5" transform="rotate(129.322 466.098 548.011)" fill="#F2F2F2" fill-opacity="0.05"/>
<rect x="479.39" y="887.301" width="7" height="18.9539" rx="3.5" transform="rotate(-155.909 479.39 887.301)" fill="#F2F2F2" fill-opacity="0.05"/>
<rect x="412.483" y="768.955" width="7" height="18.9539" rx="3.5" transform="rotate(-83.4808 412.483 768.955)" fill="#F2F2F2" fill-opacity="0.05"/>
<rect x="510.075" y="863.34" width="7" height="18.9539" rx="3.5" transform="rotate(117.155 510.075 863.34)" fill="#F2F2F2" fill-opacity="0.05"/>
<rect x="515.594" y="830" width="7" height="18.9539" rx="3.5" transform="rotate(7.74856 515.594 830)" fill="#F2F2F2" fill-opacity="0.05"/>
<rect x="409.06" y="785.25" width="7" height="18.9539" rx="3.5" transform="rotate(117.155 409.06 785.25)" fill="#F2F2F2" fill-opacity="0.05"/>
<rect x="561.046" y="877.962" width="7" height="18.9539" rx="3.5" transform="rotate(82.5175 561.046 877.962)" fill="#F2F2F2" fill-opacity="0.05"/>
<rect x="471.088" y="834.985" width="7" height="18.9539" rx="3.5" transform="rotate(147.499 471.088 834.985)" fill="#F2F2F2" fill-opacity="0.05"/>
<rect x="35.088" y="847.985" width="7" height="18.9539" rx="3.5" transform="rotate(147.499 35.088 847.985)" fill="#F2F2F2" fill-opacity="0.05"/>
<rect x="674.503" y="538.22" width="7" height="18.9539" rx="3.5" transform="rotate(38.0922 674.503 538.22)" fill="#F2F2F2" fill-opacity="0.05"/>
<rect x="595.693" y="577" width="7" height="18.9539" rx="3.5" transform="rotate(38.0922 595.693 577)" fill="#F2F2F2" fill-opacity="0.05"/>
<rect x="631.693" y="509" width="7" height="18.9539" rx="3.5" transform="rotate(38.0922 631.693 509)" fill="#F2F2F2" fill-opacity="0.05"/>
<rect x="679.693" y="616" width="7" height="18.9539" rx="3.5" transform="rotate(38.0922 679.693 616)" fill="#F2F2F2" fill-opacity="0.05"/>
<rect x="808.693" y="502" width="7" height="18.9539" rx="3.5" transform="rotate(38.0922 808.693 502)" fill="#F2F2F2" fill-opacity="0.05"/>
<rect x="737.693" y="573" width="7" height="18.9539" rx="3.5" transform="rotate(38.0922 737.693 573)" fill="#F2F2F2" fill-opacity="0.05"/>
<rect x="754.693" y="668" width="7" height="18.9539" rx="3.5" transform="rotate(38.0922 754.693 668)" fill="#F2F2F2" fill-opacity="0.05"/>
<rect x="759.693" y="712" width="7" height="18.9539" rx="3.5" transform="rotate(38.0922 759.693 712)" fill="#F2F2F2" fill-opacity="0.05"/>
<rect x="682.693" y="737" width="7" height="18.9539" rx="3.5" transform="rotate(38.0922 682.693 737)" fill="#F2F2F2" fill-opacity="0.05"/>
<rect x="622.693" y="641" width="7" height="18.9539" rx="3.5" transform="rotate(38.0922 622.693 641)" fill="#F2F2F2" fill-opacity="0.05"/>
<rect x="722.693" y="495" width="7" height="18.9539" rx="3.5" transform="rotate(38.0922 722.693 495)" fill="#F2F2F2" fill-opacity="0.05"/>
<rect x="696.693" y="668" width="7" height="18.9539" rx="3.5" transform="rotate(38.0922 696.693 668)" fill="#F2F2F2" fill-opacity="0.05"/>
<rect x="776.693" y="539" width="7" height="18.9539" rx="3.5" transform="rotate(38.0922 776.693 539)" fill="#F2F2F2" fill-opacity="0.05"/>
<rect x="683.513" y="588.96" width="7" height="18.9539" rx="3.5" transform="rotate(147.499 683.513 588.96)" fill="#F2F2F2" fill-opacity="0.05"/>
<rect x="1136.09" y="520.985" width="7" height="18.9539" rx="3.5" transform="rotate(147.499 1136.09 520.985)" fill="#F2F2F2" fill-opacity="0.05"/>
<rect x="1152.08" y="572.534" width="7" height="18.9539" rx="3.5" transform="rotate(147.499 1152.08 572.534)" fill="#F2F2F2" fill-opacity="0.05"/>
<rect x="843.088" y="746.985" width="7" height="18.9539" rx="3.5" transform="rotate(147.499 843.088 746.985)" fill="#F2F2F2" fill-opacity="0.05"/>
<rect x="1052.76" y="797.301" width="7" height="18.9539" rx="3.5" transform="rotate(147.499 1052.76 797.301)" fill="#F2F2F2" fill-opacity="0.05"/>
<rect x="955.088" y="922.985" width="7" height="18.9539" rx="3.5" transform="rotate(147.499 955.088 922.985)" fill="#F2F2F2" fill-opacity="0.05"/>
<rect x="792.088" y="863.985" width="7" height="18.9539" rx="3.5" transform="rotate(147.499 792.088 863.985)" fill="#F2F2F2" fill-opacity="0.05"/>
<rect x="798.088" y="770.985" width="7" height="18.9539" rx="3.5" transform="rotate(147.499 798.088 770.985)" fill="#F2F2F2" fill-opacity="0.05"/>
<rect x="920.093" y="544.879" width="7" height="18.9539" rx="3.5" transform="rotate(147.499 920.093 544.879)" fill="#F2F2F2" fill-opacity="0.05"/>
<rect x="1064.09" y="516.985" width="7" height="18.9539" rx="3.5" transform="rotate(147.499 1064.09 516.985)" fill="#F2F2F2" fill-opacity="0.05"/>
<rect x="1112.21" y="685.716" width="7" height="18.9539" rx="3.5" transform="rotate(147.499 1112.21 685.716)" fill="#F2F2F2" fill-opacity="0.05"/>
<rect x="600.946" y="541.985" width="7" height="18.9539" rx="3.5" transform="rotate(147.499 600.946 541.985)" fill="#F2F2F2" fill-opacity="0.05"/>
<rect x="756.088" y="871.985" width="7" height="18.9539" rx="3.5" transform="rotate(147.499 756.088 871.985)" fill="#F2F2F2" fill-opacity="0.05"/>
<rect x="598.693" y="955" width="7" height="18.9539" rx="3.5" transform="rotate(38.0922 598.693 955)" fill="#F2F2F2" fill-opacity="0.05"/>
<rect x="726.088" y="918.985" width="7" height="18.9539" rx="3.5" transform="rotate(147.499 726.088 918.985)" fill="#F2F2F2" fill-opacity="0.05"/>
<rect x="863.088" y="856.145" width="7" height="18.9539" rx="3.5" transform="rotate(147.499 863.088 856.145)" fill="#F2F2F2" fill-opacity="0.05"/>
<rect x="654.088" y="952.96" width="7" height="18.9539" rx="3.5" transform="rotate(147.499 654.088 952.96)" fill="#F2F2F2" fill-opacity="0.05"/>
<rect x="600.088" y="914.786" width="7" height="18.9539" rx="3.5" transform="rotate(147.499 600.088 914.786)" fill="#F2F2F2" fill-opacity="0.05"/>
<rect x="665.088" y="898.985" width="7" height="18.9539" rx="3.5" transform="rotate(147.499 665.088 898.985)" fill="#F2F2F2" fill-opacity="0.05"/>
<rect x="718.088" y="979.985" width="7" height="18.9539" rx="3.5" transform="rotate(147.499 718.088 979.985)" fill="#F2F2F2" fill-opacity="0.05"/>
<rect x="586.693" y="694" width="7" height="18.9539" rx="3.5" transform="rotate(38.0922 586.693 694)" fill="#F2F2F2" fill-opacity="0.05"/>
<rect x="600.693" y="743" width="7" height="18.9539" rx="3.5" transform="rotate(38.0922 600.693 743)" fill="#F2F2F2" fill-opacity="0.05"/>
<rect x="628.693" y="801" width="7" height="18.9539" rx="3.5" transform="rotate(38.0922 628.693 801)" fill="#F2F2F2" fill-opacity="0.05"/>
<rect x="658.693" y="683" width="7" height="18.9539" rx="3.5" transform="rotate(38.0922 658.693 683)" fill="#F2F2F2" fill-opacity="0.05"/>
<rect x="704.088" y="840.985" width="7" height="18.9539" rx="3.5" transform="rotate(147.499 704.088 840.985)" fill="#F2F2F2" fill-opacity="0.05"/>
<rect x="818.878" y="575" width="7" height="18.9539" rx="3.5" transform="rotate(84.8569 818.878 575)" fill="#F2F2F2" fill-opacity="0.05"/>
<rect x="841.391" y="657.318" width="7" height="18.9539" rx="3.5" transform="rotate(-165.736 841.391 657.318)" fill="#F2F2F2" fill-opacity="0.05"/>
<rect x="732.088" y="776.985" width="7" height="18.9539" rx="3.5" transform="rotate(147.499 732.088 776.985)" fill="#F2F2F2" fill-opacity="0.05"/>
<rect x="879.693" y="668" width="7" height="18.9539" rx="3.5" transform="rotate(38.0922 879.693 668)" fill="#F2F2F2" fill-opacity="0.05"/>
<rect x="797.693" y="706" width="7" height="18.9539" rx="3.5" transform="rotate(38.0922 797.693 706)" fill="#F2F2F2" fill-opacity="0.05"/>
<rect x="814.693" y="801" width="7" height="18.9539" rx="3.5" transform="rotate(38.0922 814.693 801)" fill="#F2F2F2" fill-opacity="0.05"/>
<rect x="820.693" y="882" width="7" height="18.9539" rx="3.5" transform="rotate(38.0922 820.693 882)" fill="#F2F2F2" fill-opacity="0.05"/>
<rect x="756.693" y="801" width="7" height="18.9539" rx="3.5" transform="rotate(38.0922 756.693 801)" fill="#F2F2F2" fill-opacity="0.05"/>
<rect x="1013.69" y="661" width="7" height="18.9539" rx="3.5" transform="rotate(38.0922 1013.69 661)" fill="#F2F2F2" fill-opacity="0.05"/>
<rect x="951.088" y="840.985" width="7" height="18.9539" rx="3.5" transform="rotate(147.499 951.088 840.985)" fill="#F2F2F2" fill-opacity="0.05"/>
<rect x="1115.93" y="653.836" width="7" height="18.9539" rx="3.5" transform="rotate(129.322 1115.93 653.836)" fill="#F2F2F2" fill-opacity="0.05"/>
<rect x="1068.1" y="620.011" width="7" height="18.9539" rx="3.5" transform="rotate(129.322 1068.1 620.011)" fill="#F2F2F2" fill-opacity="0.05"/>
<rect x="647.78" y="586.972" width="7" height="18.9539" rx="3.5" transform="rotate(129.322 647.78 586.972)" fill="#F2F2F2" fill-opacity="0.05"/>
<rect x="1011.1" y="604.011" width="7" height="18.9539" rx="3.5" transform="rotate(129.322 1011.1 604.011)" fill="#F2F2F2" fill-opacity="0.05"/>
<rect x="969.099" y="511.011" width="7" height="18.9539" rx="3.5" transform="rotate(129.322 969.099 511.011)" fill="#F2F2F2" fill-opacity="0.05"/>
<rect x="722.733" y="636.592" width="7" height="18.9539" rx="3.5" transform="rotate(129.322 722.733 636.592)" fill="#F2F2F2" fill-opacity="0.05"/>
<rect x="648.284" y="657.394" width="7" height="18.9539" rx="3.5" transform="rotate(-121.272 648.284 657.394)" fill="#F2F2F2" fill-opacity="0.05"/>
<rect x="885.634" y="623.822" width="7" height="18.9539" rx="3.5" transform="rotate(-121.272 885.634 623.822)" fill="#F2F2F2" fill-opacity="0.05"/>
<rect x="954.634" y="689.822" width="7" height="18.9539" rx="3.5" transform="rotate(-121.272 954.634 689.822)" fill="#F2F2F2" fill-opacity="0.05"/>
<rect x="992.634" y="565.822" width="7" height="18.9539" rx="3.5" transform="rotate(-121.272 992.634 565.822)" fill="#F2F2F2" fill-opacity="0.05"/>
<rect x="645.099" y="711.944" width="7" height="18.9539" rx="3.5" transform="rotate(129.322 645.099 711.944)" fill="#F2F2F2" fill-opacity="0.05"/>
<rect x="970.099" y="628.011" width="7" height="18.9539" rx="3.5" transform="rotate(129.322 970.099 628.011)" fill="#F2F2F2" fill-opacity="0.05"/>
<rect x="819.099" y="658.011" width="7" height="18.9539" rx="3.5" transform="rotate(129.322 819.099 658.011)" fill="#F2F2F2" fill-opacity="0.05"/>
<rect x="860.099" y="565.011" width="7" height="18.9539" rx="3.5" transform="rotate(129.322 860.099 565.011)" fill="#F2F2F2" fill-opacity="0.05"/>
<rect x="958.099" y="728.011" width="7" height="18.9539" rx="3.5" transform="rotate(129.322 958.099 728.011)" fill="#F2F2F2" fill-opacity="0.05"/>
<rect x="869.634" y="732.822" width="7" height="18.9539" rx="3.5" transform="rotate(-121.272 869.634 732.822)" fill="#F2F2F2" fill-opacity="0.05"/>
<rect x="1130.29" y="805" width="7" height="18.9539" rx="3.5" transform="rotate(25.9258 1130.29 805)" fill="#F2F2F2" fill-opacity="0.05"/>
<rect x="800.39" y="962.301" width="7" height="18.9539" rx="3.5" transform="rotate(-155.909 800.39 962.301)" fill="#F2F2F2" fill-opacity="0.05"/>
<rect x="931.093" y="765.678" width="7" height="18.9539" rx="3.5" transform="rotate(147.499 931.093 765.678)" fill="#F2F2F2" fill-opacity="0.05"/>
<rect x="1041.57" y="740.985" width="7" height="18.9539" rx="3.5" transform="rotate(147.499 1041.57 740.985)" fill="#F2F2F2" fill-opacity="0.05"/>
<rect x="1057" y="954.512" width="7" height="18.9539" rx="3.5" transform="rotate(-83.4808 1057 954.512)" fill="#F2F2F2" fill-opacity="0.05"/>
<rect x="1114.46" y="939.151" width="7" height="18.9539" rx="3.5" transform="rotate(-83.4808 1114.46 939.151)" fill="#F2F2F2" fill-opacity="0.05"/>
<rect x="896.088" y="1019.78" width="7" height="18.9539" rx="3.5" transform="rotate(147.499 896.088 1019.78)" fill="#F2F2F2" fill-opacity="0.05"/>
<rect x="1090.7" y="791.839" width="7" height="18.9539" rx="3.5" transform="rotate(129.322 1090.7 791.839)" fill="#F2F2F2" fill-opacity="0.05"/>
<rect x="868.258" y="806.011" width="7" height="18.9539" rx="3.5" transform="rotate(129.322 868.258 806.011)" fill="#F2F2F2" fill-opacity="0.05"/>
<rect x="996.6" y="748.81" width="7" height="18.9539" rx="3.5" transform="rotate(129.322 996.6 748.81)" fill="#F2F2F2" fill-opacity="0.05"/>
<rect x="935.382" y="961.352" width="7" height="18.9539" rx="3.5" transform="rotate(-38.3717 935.382 961.352)" fill="#F2F2F2" fill-opacity="0.05"/>
<rect x="994.535" y="945.391" width="7" height="18.9539" rx="3.5" transform="rotate(-121.272 994.535 945.391)" fill="#F2F2F2" fill-opacity="0.05"/>
<rect x="886.88" y="781.858" width="7" height="18.9539" rx="3.5" transform="rotate(-121.272 886.88 781.858)" fill="#F2F2F2" fill-opacity="0.05"/>
<rect x="1004.1" y="861.011" width="7" height="18.9539" rx="3.5" transform="rotate(129.322 1004.1 861.011)" fill="#F2F2F2" fill-opacity="0.05"/>
<rect x="912.922" y="973.699" width="7" height="18.9539" rx="3.5" transform="rotate(-147.778 912.922 973.699)" fill="#F2F2F2" fill-opacity="0.05"/>
<rect x="1040.62" y="909.767" width="7" height="18.9539" rx="3.5" transform="rotate(-147.778 1040.62 909.767)" fill="#F2F2F2" fill-opacity="0.05"/>
<rect x="1020.05" y="967.549" width="7" height="18.9539" rx="3.5" transform="rotate(129.322 1020.05 967.549)" fill="#F2F2F2" fill-opacity="0.05"/>
<rect x="1111.04" y="955.446" width="7" height="18.9539" rx="3.5" transform="rotate(117.155 1111.04 955.446)" fill="#F2F2F2" fill-opacity="0.05"/>
<rect x="903.088" y="1031.99" width="7" height="18.9539" rx="3.5" transform="rotate(147.499 903.088 1031.99)" fill="#F2F2F2" fill-opacity="0.05"/>
<rect x="870.39" y="957.16" width="7" height="18.9539" rx="3.5" transform="rotate(-155.909 870.39 957.16)" fill="#F2F2F2" fill-opacity="0.05"/>
<rect x="838.088" y="983.985" width="7" height="18.9539" rx="3.5" transform="rotate(147.499 838.088 983.985)" fill="#F2F2F2" fill-opacity="0.05"/>
<rect x="816.088" y="1004.99" width="7" height="18.9539" rx="3.5" transform="rotate(147.499 816.088 1004.99)" fill="#F2F2F2" fill-opacity="0.05"/>
<rect x="764.088" y="973.985" width="7" height="18.9539" rx="3.5" transform="rotate(147.499 764.088 973.985)" fill="#F2F2F2" fill-opacity="0.05"/>
<rect x="792.088" y="909.985" width="7" height="18.9539" rx="3.5" transform="rotate(147.499 792.088 909.985)" fill="#F2F2F2" fill-opacity="0.05"/>
<rect x="876.485" y="903.778" width="7" height="18.9539" rx="3.5" transform="rotate(-37.7609 876.485 903.778)" fill="#F2F2F2" fill-opacity="0.05"/>
<rect x="905.746" y="839.826" width="7" height="18.9539" rx="3.5" transform="rotate(-37.7609 905.746 839.826)" fill="#F2F2F2" fill-opacity="0.05"/>
<rect x="1108.88" y="775.721" width="7" height="18.9539" rx="3.5" transform="rotate(-147.167 1108.88 775.721)" fill="#F2F2F2" fill-opacity="0.05"/>
<rect x="826.882" y="939.721" width="7" height="18.9539" rx="3.5" transform="rotate(-147.167 826.882 939.721)" fill="#F2F2F2" fill-opacity="0.05"/>
<rect x="911.65" y="910.568" width="7" height="18.9539" rx="3.5" transform="rotate(-147.167 911.65 910.568)" fill="#F2F2F2" fill-opacity="0.05"/>
<rect x="972" y="887.287" width="7" height="18.9539" rx="3.5" transform="rotate(-37.7609 972 887.287)" fill="#F2F2F2" fill-opacity="0.05"/>
<rect x="1045.1" y="568.011" width="7" height="18.9539" rx="3.5" transform="rotate(129.322 1045.1 568.011)" fill="#F2F2F2" fill-opacity="0.05"/>
<rect x="1058.39" y="907.301" width="7" height="18.9539" rx="3.5" transform="rotate(-155.909 1058.39 907.301)" fill="#F2F2F2" fill-opacity="0.05"/>
<rect x="991.483" y="788.955" width="7" height="18.9539" rx="3.5" transform="rotate(-83.4808 991.483 788.955)" fill="#F2F2F2" fill-opacity="0.05"/>
<rect x="1089.08" y="883.34" width="7" height="18.9539" rx="3.5" transform="rotate(117.155 1089.08 883.34)" fill="#F2F2F2" fill-opacity="0.05"/>
<rect x="1094.59" y="850" width="7" height="18.9539" rx="3.5" transform="rotate(7.74856 1094.59 850)" fill="#F2F2F2" fill-opacity="0.05"/>
<rect x="988.06" y="805.25" width="7" height="18.9539" rx="3.5" transform="rotate(117.155 988.06 805.25)" fill="#F2F2F2" fill-opacity="0.05"/>
<rect x="1140.05" y="897.962" width="7" height="18.9539" rx="3.5" transform="rotate(82.5175 1140.05 897.962)" fill="#F2F2F2" fill-opacity="0.05"/>
<rect x="1050.09" y="854.985" width="7" height="18.9539" rx="3.5" transform="rotate(147.499 1050.09 854.985)" fill="#F2F2F2" fill-opacity="0.05"/>
<rect x="614.088" y="867.985" width="7" height="18.9539" rx="3.5" transform="rotate(147.499 614.088 867.985)" fill="#F2F2F2" fill-opacity="0.05"/>
<rect x="43" y="980.286" width="7" height="18.9539" rx="3.5" transform="rotate(-37.7609 43 980.286)" fill="#F2F2F2" fill-opacity="0.05"/>
<rect x="116.098" y="661.011" width="7" height="18.9539" rx="3.5" transform="rotate(129.322 116.098 661.011)" fill="#F2F2F2" fill-opacity="0.05"/>
<rect x="129.39" y="1000.3" width="7" height="18.9539" rx="3.5" transform="rotate(-155.909 129.39 1000.3)" fill="#F2F2F2" fill-opacity="0.05"/>
<rect x="62.4827" y="881.955" width="7" height="18.9539" rx="3.5" transform="rotate(-83.4808 62.4827 881.955)" fill="#F2F2F2" fill-opacity="0.05"/>
<rect x="160.076" y="976.34" width="7" height="18.9539" rx="3.5" transform="rotate(117.155 160.076 976.34)" fill="#F2F2F2" fill-opacity="0.05"/>
<rect x="165.594" y="943" width="7" height="18.9539" rx="3.5" transform="rotate(7.74856 165.594 943)" fill="#F2F2F2" fill-opacity="0.05"/>
<rect x="59.0596" y="898.25" width="7" height="18.9539" rx="3.5" transform="rotate(117.155 59.0596 898.25)" fill="#F2F2F2" fill-opacity="0.05"/>
<rect x="211.046" y="990.962" width="7" height="18.9539" rx="3.5" transform="rotate(82.5175 211.046 990.962)" fill="#F2F2F2" fill-opacity="0.05"/>
<rect x="121.088" y="947.985" width="7" height="18.9539" rx="3.5" transform="rotate(147.499 121.088 947.985)" fill="#F2F2F2" fill-opacity="0.05"/>
<rect x="223.65" y="1030.57" width="7" height="18.9539" rx="3.5" transform="rotate(-147.167 223.65 1030.57)" fill="#F2F2F2" fill-opacity="0.05"/>
<rect x="284" y="1007.29" width="7" height="18.9539" rx="3.5" transform="rotate(-37.7609 284 1007.29)" fill="#F2F2F2" fill-opacity="0.05"/>
<rect x="357.098" y="688.011" width="7" height="18.9539" rx="3.5" transform="rotate(129.322 357.098 688.011)" fill="#F2F2F2" fill-opacity="0.05"/>
<rect x="370.39" y="1027.3" width="7" height="18.9539" rx="3.5" transform="rotate(-155.909 370.39 1027.3)" fill="#F2F2F2" fill-opacity="0.05"/>
<rect x="303.483" y="908.955" width="7" height="18.9539" rx="3.5" transform="rotate(-83.4808 303.483 908.955)" fill="#F2F2F2" fill-opacity="0.05"/>
<rect x="401.076" y="1003.34" width="7" height="18.9539" rx="3.5" transform="rotate(117.155 401.076 1003.34)" fill="#F2F2F2" fill-opacity="0.05"/>
<rect x="406.594" y="970" width="7" height="18.9539" rx="3.5" transform="rotate(7.74856 406.594 970)" fill="#F2F2F2" fill-opacity="0.05"/>
<rect x="300.06" y="925.25" width="7" height="18.9539" rx="3.5" transform="rotate(117.155 300.06 925.25)" fill="#F2F2F2" fill-opacity="0.05"/>
<rect x="452.046" y="1017.96" width="7" height="18.9539" rx="3.5" transform="rotate(82.5175 452.046 1017.96)" fill="#F2F2F2" fill-opacity="0.05"/>
<rect x="362.088" y="974.985" width="7" height="18.9539" rx="3.5" transform="rotate(147.499 362.088 974.985)" fill="#F2F2F2" fill-opacity="0.05"/>
<rect x="395.65" y="1030.57" width="7" height="18.9539" rx="3.5" transform="rotate(-147.167 395.65 1030.57)" fill="#F2F2F2" fill-opacity="0.05"/>
<rect x="456" y="1007.29" width="7" height="18.9539" rx="3.5" transform="rotate(-37.7609 456 1007.29)" fill="#F2F2F2" fill-opacity="0.05"/>
<rect x="529.099" y="688.011" width="7" height="18.9539" rx="3.5" transform="rotate(129.322 529.099 688.011)" fill="#F2F2F2" fill-opacity="0.05"/>
<rect x="542.39" y="1027.3" width="7" height="18.9539" rx="3.5" transform="rotate(-155.909 542.39 1027.3)" fill="#F2F2F2" fill-opacity="0.05"/>
<rect x="475.483" y="908.955" width="7" height="18.9539" rx="3.5" transform="rotate(-83.4808 475.483 908.955)" fill="#F2F2F2" fill-opacity="0.05"/>
<rect x="573.076" y="1003.34" width="7" height="18.9539" rx="3.5" transform="rotate(117.155 573.076 1003.34)" fill="#F2F2F2" fill-opacity="0.05"/>
<rect x="578.594" y="970" width="7" height="18.9539" rx="3.5" transform="rotate(7.74856 578.594 970)" fill="#F2F2F2" fill-opacity="0.05"/>
<rect x="472.06" y="925.25" width="7" height="18.9539" rx="3.5" transform="rotate(117.155 472.06 925.25)" fill="#F2F2F2" fill-opacity="0.05"/>
<rect x="624.046" y="1017.96" width="7" height="18.9539" rx="3.5" transform="rotate(82.5175 624.046 1017.96)" fill="#F2F2F2" fill-opacity="0.05"/>
<rect x="534.088" y="974.985" width="7" height="18.9539" rx="3.5" transform="rotate(147.499 534.088 974.985)" fill="#F2F2F2" fill-opacity="0.05"/>
<rect x="98.088" y="987.985" width="7" height="18.9539" rx="3.5" transform="rotate(147.499 98.088 987.985)" fill="#F2F2F2" fill-opacity="0.05"/>
<rect x="906.65" y="1037.57" width="7" height="18.9539" rx="3.5" transform="rotate(-147.167 906.65 1037.57)" fill="#F2F2F2" fill-opacity="0.05"/>
<rect x="967" y="1014.29" width="7" height="18.9539" rx="3.5" transform="rotate(-37.7609 967 1014.29)" fill="#F2F2F2" fill-opacity="0.05"/>
<rect x="1040.1" y="695.011" width="7" height="18.9539" rx="3.5" transform="rotate(129.322 1040.1 695.011)" fill="#F2F2F2" fill-opacity="0.05"/>
<rect x="1053.39" y="1034.3" width="7" height="18.9539" rx="3.5" transform="rotate(-155.909 1053.39 1034.3)" fill="#F2F2F2" fill-opacity="0.05"/>
<rect x="986.483" y="915.955" width="7" height="18.9539" rx="3.5" transform="rotate(-83.4808 986.483 915.955)" fill="#F2F2F2" fill-opacity="0.05"/>
<rect x="1084.08" y="1010.34" width="7" height="18.9539" rx="3.5" transform="rotate(117.155 1084.08 1010.34)" fill="#F2F2F2" fill-opacity="0.05"/>
<rect x="1089.59" y="977" width="7" height="18.9539" rx="3.5" transform="rotate(7.74856 1089.59 977)" fill="#F2F2F2" fill-opacity="0.05"/>
<rect x="983.06" y="932.25" width="7" height="18.9539" rx="3.5" transform="rotate(117.155 983.06 932.25)" fill="#F2F2F2" fill-opacity="0.05"/>
<rect x="1045.09" y="981.985" width="7" height="18.9539" rx="3.5" transform="rotate(147.499 1045.09 981.985)" fill="#F2F2F2" fill-opacity="0.05"/>
<rect x="609.088" y="994.985" width="7" height="18.9539" rx="3.5" transform="rotate(147.499 609.088 994.985)" fill="#F2F2F2" fill-opacity="0.05"/>
<rect x="591" y="1016.29" width="7" height="18.9539" rx="3.5" transform="rotate(-37.7609 591 1016.29)" fill="#F2F2F2" fill-opacity="0.05"/>
<rect x="664.098" y="697.011" width="7" height="18.9539" rx="3.5" transform="rotate(129.322 664.098 697.011)" fill="#F2F2F2" fill-opacity="0.05"/>
<rect x="677.39" y="1036.3" width="7" height="18.9539" rx="3.5" transform="rotate(-155.909 677.39 1036.3)" fill="#F2F2F2" fill-opacity="0.05"/>
<rect x="610.483" y="917.955" width="7" height="18.9539" rx="3.5" transform="rotate(-83.4808 610.483 917.955)" fill="#F2F2F2" fill-opacity="0.05"/>
<rect x="708.075" y="1012.34" width="7" height="18.9539" rx="3.5" transform="rotate(117.155 708.075 1012.34)" fill="#F2F2F2" fill-opacity="0.05"/>
<rect x="713.594" y="979" width="7" height="18.9539" rx="3.5" transform="rotate(7.74856 713.594 979)" fill="#F2F2F2" fill-opacity="0.05"/>
<rect x="607.06" y="934.25" width="7" height="18.9539" rx="3.5" transform="rotate(117.155 607.06 934.25)" fill="#F2F2F2" fill-opacity="0.05"/>
<rect x="669.088" y="983.985" width="7" height="18.9539" rx="3.5" transform="rotate(147.499 669.088 983.985)" fill="#F2F2F2" fill-opacity="0.05"/>
<rect x="233.088" y="996.985" width="7" height="18.9539" rx="3.5" transform="rotate(147.499 233.088 996.985)" fill="#F2F2F2" fill-opacity="0.05"/>
<rect x="861" y="1016.29" width="7" height="18.9539" rx="3.5" transform="rotate(-37.7609 861 1016.29)" fill="#F2F2F2" fill-opacity="0.05"/>
<rect x="934.098" y="697.011" width="7" height="18.9539" rx="3.5" transform="rotate(129.322 934.098 697.011)" fill="#F2F2F2" fill-opacity="0.05"/>
<rect x="947.39" y="1036.3" width="7" height="18.9539" rx="3.5" transform="rotate(-155.909 947.39 1036.3)" fill="#F2F2F2" fill-opacity="0.05"/>
<rect x="880.483" y="917.955" width="7" height="18.9539" rx="3.5" transform="rotate(-83.4808 880.483 917.955)" fill="#F2F2F2" fill-opacity="0.05"/>
<rect x="978.075" y="1012.34" width="7" height="18.9539" rx="3.5" transform="rotate(117.155 978.075 1012.34)" fill="#F2F2F2" fill-opacity="0.05"/>
<rect x="983.594" y="979" width="7" height="18.9539" rx="3.5" transform="rotate(7.74856 983.594 979)" fill="#F2F2F2" fill-opacity="0.05"/>
<rect x="877.06" y="934.25" width="7" height="18.9539" rx="3.5" transform="rotate(117.155 877.06 934.25)" fill="#F2F2F2" fill-opacity="0.05"/>
<rect x="939.088" y="983.985" width="7" height="18.9539" rx="3.5" transform="rotate(147.499 939.088 983.985)" fill="#F2F2F2" fill-opacity="0.05"/>
<rect x="503.088" y="996.985" width="7" height="18.9539" rx="3.5" transform="rotate(147.499 503.088 996.985)" fill="#F2F2F2" fill-opacity="0.05"/>
<rect x="1132.65" y="1019.57" width="7" height="18.9539" rx="3.5" transform="rotate(-147.167 1132.65 1019.57)" fill="#F2F2F2" fill-opacity="0.05"/>
<rect x="1193" y="996.286" width="7" height="18.9539" rx="3.5" transform="rotate(-37.7609 1193 996.286)" fill="#F2F2F2" fill-opacity="0.05"/>
<rect x="1266.1" y="677.011" width="7" height="18.9539" rx="3.5" transform="rotate(129.322 1266.1 677.011)" fill="#F2F2F2" fill-opacity="0.05"/>
<rect x="1279.39" y="1016.3" width="7" height="18.9539" rx="3.5" transform="rotate(-155.909 1279.39 1016.3)" fill="#F2F2F2" fill-opacity="0.05"/>
<rect x="1212.48" y="897.955" width="7" height="18.9539" rx="3.5" transform="rotate(-83.4808 1212.48 897.955)" fill="#F2F2F2" fill-opacity="0.05"/>
<rect x="1310.08" y="992.34" width="7" height="18.9539" rx="3.5" transform="rotate(117.155 1310.08 992.34)" fill="#F2F2F2" fill-opacity="0.05"/>
<rect x="1315.59" y="959" width="7" height="18.9539" rx="3.5" transform="rotate(7.74856 1315.59 959)" fill="#F2F2F2" fill-opacity="0.05"/>
<rect x="1209.06" y="914.25" width="7" height="18.9539" rx="3.5" transform="rotate(117.155 1209.06 914.25)" fill="#F2F2F2" fill-opacity="0.05"/>
<rect x="1361.05" y="1006.96" width="7" height="18.9539" rx="3.5" transform="rotate(82.5175 1361.05 1006.96)" fill="#F2F2F2" fill-opacity="0.05"/>
<rect x="1271.09" y="963.985" width="7" height="18.9539" rx="3.5" transform="rotate(147.499 1271.09 963.985)" fill="#F2F2F2" fill-opacity="0.05"/>
<rect x="835.088" y="976.985" width="7" height="18.9539" rx="3.5" transform="rotate(147.499 835.088 976.985)" fill="#F2F2F2" fill-opacity="0.05"/>
<rect x="1250.5" y="521.22" width="7" height="18.9539" rx="3.5" transform="rotate(38.0922 1250.5 521.22)" fill="#F2F2F2" fill-opacity="0.05"/>
<rect x="1171.69" y="560" width="7" height="18.9539" rx="3.5" transform="rotate(38.0922 1171.69 560)" fill="#F2F2F2" fill-opacity="0.05"/>
<rect x="1207.69" y="492" width="7" height="18.9539" rx="3.5" transform="rotate(38.0922 1207.69 492)" fill="#F2F2F2" fill-opacity="0.05"/>
<rect x="1255.69" y="599" width="7" height="18.9539" rx="3.5" transform="rotate(38.0922 1255.69 599)" fill="#F2F2F2" fill-opacity="0.05"/>
<rect x="1384.69" y="485" width="7" height="18.9539" rx="3.5" transform="rotate(38.0922 1384.69 485)" fill="#F2F2F2" fill-opacity="0.05"/>
<rect x="1313.69" y="556" width="7" height="18.9539" rx="3.5" transform="rotate(38.0922 1313.69 556)" fill="#F2F2F2" fill-opacity="0.05"/>
<rect x="1330.69" y="651" width="7" height="18.9539" rx="3.5" transform="rotate(38.0922 1330.69 651)" fill="#F2F2F2" fill-opacity="0.05"/>
<rect x="1335.69" y="695" width="7" height="18.9539" rx="3.5" transform="rotate(38.0922 1335.69 695)" fill="#F2F2F2" fill-opacity="0.05"/>
<rect x="1258.69" y="720" width="7" height="18.9539" rx="3.5" transform="rotate(38.0922 1258.69 720)" fill="#F2F2F2" fill-opacity="0.05"/>
<rect x="1198.69" y="624" width="7" height="18.9539" rx="3.5" transform="rotate(38.0922 1198.69 624)" fill="#F2F2F2" fill-opacity="0.05"/>
<rect x="1298.69" y="478" width="7" height="18.9539" rx="3.5" transform="rotate(38.0922 1298.69 478)" fill="#F2F2F2" fill-opacity="0.05"/>
<rect x="1272.69" y="651" width="7" height="18.9539" rx="3.5" transform="rotate(38.0922 1272.69 651)" fill="#F2F2F2" fill-opacity="0.05"/>
<rect x="1352.69" y="522" width="7" height="18.9539" rx="3.5" transform="rotate(38.0922 1352.69 522)" fill="#F2F2F2" fill-opacity="0.05"/>
<rect x="1259.51" y="571.96" width="7" height="18.9539" rx="3.5" transform="rotate(147.499 1259.51 571.96)" fill="#F2F2F2" fill-opacity="0.05"/>
<rect x="1419.09" y="729.985" width="7" height="18.9539" rx="3.5" transform="rotate(147.499 1419.09 729.985)" fill="#F2F2F2" fill-opacity="0.05"/>
<rect x="1368.09" y="846.985" width="7" height="18.9539" rx="3.5" transform="rotate(147.499 1368.09 846.985)" fill="#F2F2F2" fill-opacity="0.05"/>
<rect x="1374.09" y="753.985" width="7" height="18.9539" rx="3.5" transform="rotate(147.499 1374.09 753.985)" fill="#F2F2F2" fill-opacity="0.05"/>
<rect x="1176.95" y="524.985" width="7" height="18.9539" rx="3.5" transform="rotate(147.499 1176.95 524.985)" fill="#F2F2F2" fill-opacity="0.05"/>
<rect x="1332.09" y="854.985" width="7" height="18.9539" rx="3.5" transform="rotate(147.499 1332.09 854.985)" fill="#F2F2F2" fill-opacity="0.05"/>
<rect x="1174.69" y="938" width="7" height="18.9539" rx="3.5" transform="rotate(38.0922 1174.69 938)" fill="#F2F2F2" fill-opacity="0.05"/>
<rect x="1302.09" y="901.985" width="7" height="18.9539" rx="3.5" transform="rotate(147.499 1302.09 901.985)" fill="#F2F2F2" fill-opacity="0.05"/>
<rect x="1439.09" y="839.145" width="7" height="18.9539" rx="3.5" transform="rotate(147.499 1439.09 839.145)" fill="#F2F2F2" fill-opacity="0.05"/>
<rect x="1230.09" y="935.96" width="7" height="18.9539" rx="3.5" transform="rotate(147.499 1230.09 935.96)" fill="#F2F2F2" fill-opacity="0.05"/>
<rect x="1176.09" y="897.786" width="7" height="18.9539" rx="3.5" transform="rotate(147.499 1176.09 897.786)" fill="#F2F2F2" fill-opacity="0.05"/>
<rect x="1241.09" y="881.985" width="7" height="18.9539" rx="3.5" transform="rotate(147.499 1241.09 881.985)" fill="#F2F2F2" fill-opacity="0.05"/>
<rect x="1294.09" y="962.985" width="7" height="18.9539" rx="3.5" transform="rotate(147.499 1294.09 962.985)" fill="#F2F2F2" fill-opacity="0.05"/>
<rect x="1162.69" y="677" width="7" height="18.9539" rx="3.5" transform="rotate(38.0922 1162.69 677)" fill="#F2F2F2" fill-opacity="0.05"/>
<rect x="1176.69" y="726" width="7" height="18.9539" rx="3.5" transform="rotate(38.0922 1176.69 726)" fill="#F2F2F2" fill-opacity="0.05"/>
<rect x="1204.69" y="784" width="7" height="18.9539" rx="3.5" transform="rotate(38.0922 1204.69 784)" fill="#F2F2F2" fill-opacity="0.05"/>
<rect x="1234.69" y="666" width="7" height="18.9539" rx="3.5" transform="rotate(38.0922 1234.69 666)" fill="#F2F2F2" fill-opacity="0.05"/>
<rect x="1280.09" y="823.985" width="7" height="18.9539" rx="3.5" transform="rotate(147.499 1280.09 823.985)" fill="#F2F2F2" fill-opacity="0.05"/>
<rect x="1394.88" y="558" width="7" height="18.9539" rx="3.5" transform="rotate(84.8569 1394.88 558)" fill="#F2F2F2" fill-opacity="0.05"/>
<rect x="1417.39" y="640.318" width="7" height="18.9539" rx="3.5" transform="rotate(-165.736 1417.39 640.318)" fill="#F2F2F2" fill-opacity="0.05"/>
<rect x="1308.09" y="759.985" width="7" height="18.9539" rx="3.5" transform="rotate(147.499 1308.09 759.985)" fill="#F2F2F2" fill-opacity="0.05"/>
<rect x="1373.69" y="689" width="7" height="18.9539" rx="3.5" transform="rotate(38.0922 1373.69 689)" fill="#F2F2F2" fill-opacity="0.05"/>
<rect x="1390.69" y="784" width="7" height="18.9539" rx="3.5" transform="rotate(38.0922 1390.69 784)" fill="#F2F2F2" fill-opacity="0.05"/>
<rect x="1396.69" y="865" width="7" height="18.9539" rx="3.5" transform="rotate(38.0922 1396.69 865)" fill="#F2F2F2" fill-opacity="0.05"/>
<rect x="1332.69" y="784" width="7" height="18.9539" rx="3.5" transform="rotate(38.0922 1332.69 784)" fill="#F2F2F2" fill-opacity="0.05"/>
<rect x="1223.78" y="569.972" width="7" height="18.9539" rx="3.5" transform="rotate(129.322 1223.78 569.972)" fill="#F2F2F2" fill-opacity="0.05"/>
<rect x="1298.73" y="619.592" width="7" height="18.9539" rx="3.5" transform="rotate(129.322 1298.73 619.592)" fill="#F2F2F2" fill-opacity="0.05"/>
<rect x="1224.28" y="640.394" width="7" height="18.9539" rx="3.5" transform="rotate(-121.272 1224.28 640.394)" fill="#F2F2F2" fill-opacity="0.05"/>
<rect x="1221.1" y="694.944" width="7" height="18.9539" rx="3.5" transform="rotate(129.322 1221.1 694.944)" fill="#F2F2F2" fill-opacity="0.05"/>
<rect x="1395.1" y="641.011" width="7" height="18.9539" rx="3.5" transform="rotate(129.322 1395.1 641.011)" fill="#F2F2F2" fill-opacity="0.05"/>
<rect x="1436.1" y="548.011" width="7" height="18.9539" rx="3.5" transform="rotate(129.322 1436.1 548.011)" fill="#F2F2F2" fill-opacity="0.05"/>
<rect x="1376.39" y="945.301" width="7" height="18.9539" rx="3.5" transform="rotate(-155.909 1376.39 945.301)" fill="#F2F2F2" fill-opacity="0.05"/>
<rect x="1444.26" y="789.011" width="7" height="18.9539" rx="3.5" transform="rotate(129.322 1444.26 789.011)" fill="#F2F2F2" fill-opacity="0.05"/>
<rect x="1414.09" y="966.985" width="7" height="18.9539" rx="3.5" transform="rotate(147.499 1414.09 966.985)" fill="#F2F2F2" fill-opacity="0.05"/>
<rect x="1392.09" y="987.985" width="7" height="18.9539" rx="3.5" transform="rotate(147.499 1392.09 987.985)" fill="#F2F2F2" fill-opacity="0.05"/>
<rect x="1340.09" y="956.985" width="7" height="18.9539" rx="3.5" transform="rotate(147.499 1340.09 956.985)" fill="#F2F2F2" fill-opacity="0.05"/>
<rect x="1368.09" y="892.985" width="7" height="18.9539" rx="3.5" transform="rotate(147.499 1368.09 892.985)" fill="#F2F2F2" fill-opacity="0.05"/>
<rect x="1402.88" y="922.721" width="7" height="18.9539" rx="3.5" transform="rotate(-147.167 1402.88 922.721)" fill="#F2F2F2" fill-opacity="0.05"/>
<rect x="1190.09" y="850.985" width="7" height="18.9539" rx="3.5" transform="rotate(147.499 1190.09 850.985)" fill="#F2F2F2" fill-opacity="0.05"/>
<rect x="1207.5" y="57.2198" width="7" height="18.9539" rx="3.5" transform="rotate(38.0922 1207.5 57.2198)" fill="#F2F2F2" fill-opacity="0.05"/>
<rect x="1128.69" y="96" width="7" height="18.9539" rx="3.5" transform="rotate(38.0922 1128.69 96)" fill="#F2F2F2" fill-opacity="0.05"/>
<rect x="1164.69" y="28" width="7" height="18.9539" rx="3.5" transform="rotate(38.0922 1164.69 28)" fill="#F2F2F2" fill-opacity="0.05"/>
<rect x="1212.69" y="135" width="7" height="18.9539" rx="3.5" transform="rotate(38.0922 1212.69 135)" fill="#F2F2F2" fill-opacity="0.05"/>
<rect x="1341.69" y="21" width="7" height="18.9539" rx="3.5" transform="rotate(38.0922 1341.69 21)" fill="#F2F2F2" fill-opacity="0.05"/>
<rect x="1270.69" y="92" width="7" height="18.9539" rx="3.5" transform="rotate(38.0922 1270.69 92)" fill="#F2F2F2" fill-opacity="0.05"/>
<rect x="1287.69" y="187" width="7" height="18.9539" rx="3.5" transform="rotate(38.0922 1287.69 187)" fill="#F2F2F2" fill-opacity="0.05"/>
<rect x="1292.69" y="231" width="7" height="18.9539" rx="3.5" transform="rotate(38.0922 1292.69 231)" fill="#F2F2F2" fill-opacity="0.05"/>
<rect x="1215.69" y="256" width="7" height="18.9539" rx="3.5" transform="rotate(38.0922 1215.69 256)" fill="#F2F2F2" fill-opacity="0.05"/>
<rect x="1155.69" y="160" width="7" height="18.9539" rx="3.5" transform="rotate(38.0922 1155.69 160)" fill="#F2F2F2" fill-opacity="0.05"/>
<rect x="1255.69" y="14" width="7" height="18.9539" rx="3.5" transform="rotate(38.0922 1255.69 14)" fill="#F2F2F2" fill-opacity="0.05"/>
<rect x="1229.69" y="187" width="7" height="18.9539" rx="3.5" transform="rotate(38.0922 1229.69 187)" fill="#F2F2F2" fill-opacity="0.05"/>
<rect x="1309.69" y="58" width="7" height="18.9539" rx="3.5" transform="rotate(38.0922 1309.69 58)" fill="#F2F2F2" fill-opacity="0.05"/>
<rect x="1216.51" y="107.96" width="7" height="18.9539" rx="3.5" transform="rotate(147.499 1216.51 107.96)" fill="#F2F2F2" fill-opacity="0.05"/>
<rect x="1376.09" y="265.985" width="7" height="18.9539" rx="3.5" transform="rotate(147.499 1376.09 265.985)" fill="#F2F2F2" fill-opacity="0.05"/>
<rect x="1325.09" y="382.985" width="7" height="18.9539" rx="3.5" transform="rotate(147.499 1325.09 382.985)" fill="#F2F2F2" fill-opacity="0.05"/>
<rect x="1331.09" y="289.985" width="7" height="18.9539" rx="3.5" transform="rotate(147.499 1331.09 289.985)" fill="#F2F2F2" fill-opacity="0.05"/>
<rect x="1453.09" y="63.8792" width="7" height="18.9539" rx="3.5" transform="rotate(147.499 1453.09 63.8792)" fill="#F2F2F2" fill-opacity="0.05"/>
<rect x="1133.95" y="60.9854" width="7" height="18.9539" rx="3.5" transform="rotate(147.499 1133.95 60.9854)" fill="#F2F2F2" fill-opacity="0.05"/>
<rect x="1289.09" y="390.985" width="7" height="18.9539" rx="3.5" transform="rotate(147.499 1289.09 390.985)" fill="#F2F2F2" fill-opacity="0.05"/>
<rect x="1131.69" y="474" width="7" height="18.9539" rx="3.5" transform="rotate(38.0922 1131.69 474)" fill="#F2F2F2" fill-opacity="0.05"/>
<rect x="1259.09" y="437.985" width="7" height="18.9539" rx="3.5" transform="rotate(147.499 1259.09 437.985)" fill="#F2F2F2" fill-opacity="0.05"/>
<rect x="1396.09" y="375.145" width="7" height="18.9539" rx="3.5" transform="rotate(147.499 1396.09 375.145)" fill="#F2F2F2" fill-opacity="0.05"/>
<rect x="1187.09" y="471.96" width="7" height="18.9539" rx="3.5" transform="rotate(147.499 1187.09 471.96)" fill="#F2F2F2" fill-opacity="0.05"/>
<rect x="1133.09" y="433.786" width="7" height="18.9539" rx="3.5" transform="rotate(147.499 1133.09 433.786)" fill="#F2F2F2" fill-opacity="0.05"/>
<rect x="1198.09" y="417.985" width="7" height="18.9539" rx="3.5" transform="rotate(147.499 1198.09 417.985)" fill="#F2F2F2" fill-opacity="0.05"/>
<rect x="1251.09" y="498.985" width="7" height="18.9539" rx="3.5" transform="rotate(147.499 1251.09 498.985)" fill="#F2F2F2" fill-opacity="0.05"/>
<rect x="1119.69" y="213" width="7" height="18.9539" rx="3.5" transform="rotate(38.0922 1119.69 213)" fill="#F2F2F2" fill-opacity="0.05"/>
<rect x="1133.69" y="262" width="7" height="18.9539" rx="3.5" transform="rotate(38.0922 1133.69 262)" fill="#F2F2F2" fill-opacity="0.05"/>
<rect x="1161.69" y="320" width="7" height="18.9539" rx="3.5" transform="rotate(38.0922 1161.69 320)" fill="#F2F2F2" fill-opacity="0.05"/>
<rect x="1191.69" y="202" width="7" height="18.9539" rx="3.5" transform="rotate(38.0922 1191.69 202)" fill="#F2F2F2" fill-opacity="0.05"/>
<rect x="1237.09" y="359.985" width="7" height="18.9539" rx="3.5" transform="rotate(147.499 1237.09 359.985)" fill="#F2F2F2" fill-opacity="0.05"/>
<rect x="1351.88" y="94" width="7" height="18.9539" rx="3.5" transform="rotate(84.8569 1351.88 94)" fill="#F2F2F2" fill-opacity="0.05"/>
<rect x="1374.39" y="176.318" width="7" height="18.9539" rx="3.5" transform="rotate(-165.736 1374.39 176.318)" fill="#F2F2F2" fill-opacity="0.05"/>
<rect x="1265.09" y="295.985" width="7" height="18.9539" rx="3.5" transform="rotate(147.499 1265.09 295.985)" fill="#F2F2F2" fill-opacity="0.05"/>
<rect x="1412.69" y="187" width="7" height="18.9539" rx="3.5" transform="rotate(38.0922 1412.69 187)" fill="#F2F2F2" fill-opacity="0.05"/>
<rect x="1330.69" y="225" width="7" height="18.9539" rx="3.5" transform="rotate(38.0922 1330.69 225)" fill="#F2F2F2" fill-opacity="0.05"/>
<rect x="1347.69" y="320" width="7" height="18.9539" rx="3.5" transform="rotate(38.0922 1347.69 320)" fill="#F2F2F2" fill-opacity="0.05"/>
<rect x="1353.69" y="401" width="7" height="18.9539" rx="3.5" transform="rotate(38.0922 1353.69 401)" fill="#F2F2F2" fill-opacity="0.05"/>
<rect x="1289.69" y="320" width="7" height="18.9539" rx="3.5" transform="rotate(38.0922 1289.69 320)" fill="#F2F2F2" fill-opacity="0.05"/>
<rect x="1180.78" y="105.972" width="7" height="18.9539" rx="3.5" transform="rotate(129.322 1180.78 105.972)" fill="#F2F2F2" fill-opacity="0.05"/>
<rect x="1255.73" y="155.592" width="7" height="18.9539" rx="3.5" transform="rotate(129.322 1255.73 155.592)" fill="#F2F2F2" fill-opacity="0.05"/>
<rect x="1181.28" y="176.394" width="7" height="18.9539" rx="3.5" transform="rotate(-121.272 1181.28 176.394)" fill="#F2F2F2" fill-opacity="0.05"/>
<rect x="1418.63" y="142.822" width="7" height="18.9539" rx="3.5" transform="rotate(-121.272 1418.63 142.822)" fill="#F2F2F2" fill-opacity="0.05"/>
<rect x="1178.1" y="230.944" width="7" height="18.9539" rx="3.5" transform="rotate(129.322 1178.1 230.944)" fill="#F2F2F2" fill-opacity="0.05"/>
<rect x="1352.1" y="177.011" width="7" height="18.9539" rx="3.5" transform="rotate(129.322 1352.1 177.011)" fill="#F2F2F2" fill-opacity="0.05"/>
<rect x="1393.1" y="84.0106" width="7" height="18.9539" rx="3.5" transform="rotate(129.322 1393.1 84.0106)" fill="#F2F2F2" fill-opacity="0.05"/>
<rect x="1402.63" y="251.822" width="7" height="18.9539" rx="3.5" transform="rotate(-121.272 1402.63 251.822)" fill="#F2F2F2" fill-opacity="0.05"/>
<rect x="1333.39" y="481.301" width="7" height="18.9539" rx="3.5" transform="rotate(-155.909 1333.39 481.301)" fill="#F2F2F2" fill-opacity="0.05"/>
<rect x="1429.09" y="538.785" width="7" height="18.9539" rx="3.5" transform="rotate(147.499 1429.09 538.785)" fill="#F2F2F2" fill-opacity="0.05"/>
<rect x="1401.26" y="325.011" width="7" height="18.9539" rx="3.5" transform="rotate(129.322 1401.26 325.011)" fill="#F2F2F2" fill-opacity="0.05"/>
<rect x="1419.88" y="300.858" width="7" height="18.9539" rx="3.5" transform="rotate(-121.272 1419.88 300.858)" fill="#F2F2F2" fill-opacity="0.05"/>
<rect x="1436.09" y="550.985" width="7" height="18.9539" rx="3.5" transform="rotate(147.499 1436.09 550.985)" fill="#F2F2F2" fill-opacity="0.05"/>
<rect x="1403.39" y="476.16" width="7" height="18.9539" rx="3.5" transform="rotate(-155.909 1403.39 476.16)" fill="#F2F2F2" fill-opacity="0.05"/>
<rect x="1371.09" y="502.985" width="7" height="18.9539" rx="3.5" transform="rotate(147.499 1371.09 502.985)" fill="#F2F2F2" fill-opacity="0.05"/>
<rect x="1349.09" y="523.985" width="7" height="18.9539" rx="3.5" transform="rotate(147.499 1349.09 523.985)" fill="#F2F2F2" fill-opacity="0.05"/>
<rect x="1297.09" y="492.985" width="7" height="18.9539" rx="3.5" transform="rotate(147.499 1297.09 492.985)" fill="#F2F2F2" fill-opacity="0.05"/>
<rect x="1325.09" y="428.985" width="7" height="18.9539" rx="3.5" transform="rotate(147.499 1325.09 428.985)" fill="#F2F2F2" fill-opacity="0.05"/>
<rect x="1409.48" y="422.778" width="7" height="18.9539" rx="3.5" transform="rotate(-37.7609 1409.48 422.778)" fill="#F2F2F2" fill-opacity="0.05"/>
<rect x="1359.88" y="458.721" width="7" height="18.9539" rx="3.5" transform="rotate(-147.167 1359.88 458.721)" fill="#F2F2F2" fill-opacity="0.05"/>
<rect x="1147.09" y="386.985" width="7" height="18.9539" rx="3.5" transform="rotate(147.499 1147.09 386.985)" fill="#F2F2F2" fill-opacity="0.05"/>
</svg>
